%TF.GenerationSoftware,KiCad,Pcbnew,(5.0.1)-3*%
%TF.CreationDate,2018-10-26T14:10:22+13:00*%
%TF.ProjectId,TINY-REFLOW-CONTROLLER,54494E592D5245464C4F572D434F4E54,rev?*%
%TF.SameCoordinates,PX8f0d180PY5f5e100*%
%TF.FileFunction,Soldermask,Bot*%
%TF.FilePolarity,Negative*%
%FSLAX46Y46*%
G04 Gerber Fmt 4.6, Leading zero omitted, Abs format (unit mm)*
G04 Created by KiCad (PCBNEW (5.0.1)-3) date 26/10/2018 14:10:22*
%MOMM*%
%LPD*%
G01*
G04 APERTURE LIST*
%ADD10C,0.100000*%
G04 APERTURE END LIST*
D10*
G36*
X38112547Y4519299D02*
X38494722Y4360997D01*
X38494723Y4360996D01*
X38838672Y4131177D01*
X39131177Y3838672D01*
X39284390Y3609373D01*
X39360997Y3494722D01*
X39519299Y3112547D01*
X39600000Y2706833D01*
X39600000Y2293167D01*
X39519299Y1887453D01*
X39360997Y1505278D01*
X39360996Y1505277D01*
X39131177Y1161328D01*
X38838672Y868823D01*
X38609373Y715610D01*
X38494722Y639003D01*
X38112547Y480701D01*
X37706833Y400000D01*
X37293167Y400000D01*
X36887453Y480701D01*
X36505278Y639003D01*
X36390627Y715610D01*
X36161328Y868823D01*
X35868823Y1161328D01*
X35639004Y1505277D01*
X35639003Y1505278D01*
X35480701Y1887453D01*
X35400000Y2293167D01*
X35400000Y2706833D01*
X35480701Y3112547D01*
X35639003Y3494722D01*
X35715610Y3609373D01*
X35868823Y3838672D01*
X36161328Y4131177D01*
X36505277Y4360996D01*
X36505278Y4360997D01*
X36887453Y4519299D01*
X37293167Y4600000D01*
X37706833Y4600000D01*
X38112547Y4519299D01*
X38112547Y4519299D01*
G37*
G36*
X3112547Y4519299D02*
X3494722Y4360997D01*
X3494723Y4360996D01*
X3838672Y4131177D01*
X4131177Y3838672D01*
X4284390Y3609373D01*
X4360997Y3494722D01*
X4519299Y3112547D01*
X4600000Y2706833D01*
X4600000Y2293167D01*
X4519299Y1887453D01*
X4360997Y1505278D01*
X4360996Y1505277D01*
X4131177Y1161328D01*
X3838672Y868823D01*
X3609373Y715610D01*
X3494722Y639003D01*
X3112547Y480701D01*
X2706833Y400000D01*
X2293167Y400000D01*
X1887453Y480701D01*
X1505278Y639003D01*
X1390627Y715610D01*
X1161328Y868823D01*
X868823Y1161328D01*
X639004Y1505277D01*
X639003Y1505278D01*
X480701Y1887453D01*
X400000Y2293167D01*
X400000Y2706833D01*
X480701Y3112547D01*
X639003Y3494722D01*
X715610Y3609373D01*
X868823Y3838672D01*
X1161328Y4131177D01*
X1505277Y4360996D01*
X1505278Y4360997D01*
X1887453Y4519299D01*
X2293167Y4600000D01*
X2706833Y4600000D01*
X3112547Y4519299D01*
X3112547Y4519299D01*
G37*
G36*
X11418690Y7334649D02*
X11605045Y7257458D01*
X11772765Y7145391D01*
X11915391Y7002765D01*
X12027458Y6835045D01*
X12104649Y6648690D01*
X12144000Y6450857D01*
X12144000Y6249143D01*
X12104649Y6051310D01*
X12027458Y5864955D01*
X11915391Y5697235D01*
X11772765Y5554609D01*
X11605045Y5442542D01*
X11418690Y5365351D01*
X11220857Y5326000D01*
X11019143Y5326000D01*
X10821310Y5365351D01*
X10634955Y5442542D01*
X10467235Y5554609D01*
X10324609Y5697235D01*
X10212542Y5864955D01*
X10135351Y6051310D01*
X10096000Y6249143D01*
X10096000Y6450857D01*
X10135351Y6648690D01*
X10212542Y6835045D01*
X10324609Y7002765D01*
X10467235Y7145391D01*
X10634955Y7257458D01*
X10821310Y7334649D01*
X11019143Y7374000D01*
X11220857Y7374000D01*
X11418690Y7334649D01*
X11418690Y7334649D01*
G37*
G36*
X14903690Y7334649D02*
X15090045Y7257458D01*
X15257765Y7145391D01*
X15400391Y7002765D01*
X15512458Y6835045D01*
X15589649Y6648690D01*
X15629000Y6450857D01*
X15629000Y6249143D01*
X15589649Y6051310D01*
X15512458Y5864955D01*
X15400391Y5697235D01*
X15257765Y5554609D01*
X15090045Y5442542D01*
X14903690Y5365351D01*
X14705857Y5326000D01*
X14504143Y5326000D01*
X14306310Y5365351D01*
X14119955Y5442542D01*
X13952235Y5554609D01*
X13809609Y5697235D01*
X13697542Y5864955D01*
X13620351Y6051310D01*
X13581000Y6249143D01*
X13581000Y6450857D01*
X13620351Y6648690D01*
X13697542Y6835045D01*
X13809609Y7002765D01*
X13952235Y7145391D01*
X14119955Y7257458D01*
X14306310Y7334649D01*
X14504143Y7374000D01*
X14705857Y7374000D01*
X14903690Y7334649D01*
X14903690Y7334649D01*
G37*
G36*
X18403690Y7334649D02*
X18590045Y7257458D01*
X18757765Y7145391D01*
X18900391Y7002765D01*
X19012458Y6835045D01*
X19089649Y6648690D01*
X19129000Y6450857D01*
X19129000Y6249143D01*
X19089649Y6051310D01*
X19012458Y5864955D01*
X18900391Y5697235D01*
X18757765Y5554609D01*
X18590045Y5442542D01*
X18403690Y5365351D01*
X18205857Y5326000D01*
X18004143Y5326000D01*
X17806310Y5365351D01*
X17619955Y5442542D01*
X17452235Y5554609D01*
X17309609Y5697235D01*
X17197542Y5864955D01*
X17120351Y6051310D01*
X17081000Y6249143D01*
X17081000Y6450857D01*
X17120351Y6648690D01*
X17197542Y6835045D01*
X17309609Y7002765D01*
X17452235Y7145391D01*
X17619955Y7257458D01*
X17806310Y7334649D01*
X18004143Y7374000D01*
X18205857Y7374000D01*
X18403690Y7334649D01*
X18403690Y7334649D01*
G37*
G36*
X7918690Y7334649D02*
X8105045Y7257458D01*
X8272765Y7145391D01*
X8415391Y7002765D01*
X8527458Y6835045D01*
X8604649Y6648690D01*
X8644000Y6450857D01*
X8644000Y6249143D01*
X8604649Y6051310D01*
X8527458Y5864955D01*
X8415391Y5697235D01*
X8272765Y5554609D01*
X8105045Y5442542D01*
X7918690Y5365351D01*
X7720857Y5326000D01*
X7519143Y5326000D01*
X7321310Y5365351D01*
X7134955Y5442542D01*
X6967235Y5554609D01*
X6824609Y5697235D01*
X6712542Y5864955D01*
X6635351Y6051310D01*
X6596000Y6249143D01*
X6596000Y6450857D01*
X6635351Y6648690D01*
X6712542Y6835045D01*
X6824609Y7002765D01*
X6967235Y7145391D01*
X7134955Y7257458D01*
X7321310Y7334649D01*
X7519143Y7374000D01*
X7720857Y7374000D01*
X7918690Y7334649D01*
X7918690Y7334649D01*
G37*
G36*
X2554209Y13276984D02*
X2899986Y13133759D01*
X3211182Y12925824D01*
X3475824Y12661182D01*
X3683759Y12349986D01*
X3826984Y12004209D01*
X3900000Y11637135D01*
X3900000Y11262865D01*
X3826984Y10895791D01*
X3683759Y10550014D01*
X3475824Y10238818D01*
X3211182Y9974176D01*
X2899986Y9766241D01*
X2554209Y9623016D01*
X2187135Y9550000D01*
X1812865Y9550000D01*
X1445791Y9623016D01*
X1100014Y9766241D01*
X788818Y9974176D01*
X524176Y10238818D01*
X316241Y10550014D01*
X173016Y10895791D01*
X100000Y11262865D01*
X100000Y11637135D01*
X173016Y12004209D01*
X316241Y12349986D01*
X524176Y12661182D01*
X788818Y12925824D01*
X1100014Y13133759D01*
X1445791Y13276984D01*
X1812865Y13350000D01*
X2187135Y13350000D01*
X2554209Y13276984D01*
X2554209Y13276984D01*
G37*
G36*
X38554209Y13276984D02*
X38899986Y13133759D01*
X39211182Y12925824D01*
X39475824Y12661182D01*
X39683759Y12349986D01*
X39826984Y12004209D01*
X39900000Y11637135D01*
X39900000Y11262865D01*
X39826984Y10895791D01*
X39683759Y10550014D01*
X39475824Y10238818D01*
X39211182Y9974176D01*
X38899986Y9766241D01*
X38554209Y9623016D01*
X38187135Y9550000D01*
X37812865Y9550000D01*
X37445791Y9623016D01*
X37100014Y9766241D01*
X36788818Y9974176D01*
X36524176Y10238818D01*
X36316241Y10550014D01*
X36173016Y10895791D01*
X36100000Y11262865D01*
X36100000Y11637135D01*
X36173016Y12004209D01*
X36316241Y12349986D01*
X36524176Y12661182D01*
X36788818Y12925824D01*
X37100014Y13133759D01*
X37445791Y13276984D01*
X37812865Y13350000D01*
X38187135Y13350000D01*
X38554209Y13276984D01*
X38554209Y13276984D01*
G37*
G36*
X4506900Y21904658D02*
X4688536Y21849558D01*
X4855940Y21760079D01*
X5002665Y21639665D01*
X5123079Y21492940D01*
X5212558Y21325536D01*
X5267658Y21143900D01*
X5286262Y20955000D01*
X5267658Y20766100D01*
X5212558Y20584464D01*
X5123079Y20417060D01*
X5002665Y20270335D01*
X4855940Y20149921D01*
X4688536Y20060442D01*
X4506900Y20005342D01*
X4365338Y19991400D01*
X4270662Y19991400D01*
X4129100Y20005342D01*
X3947464Y20060442D01*
X3780060Y20149921D01*
X3633335Y20270335D01*
X3512921Y20417060D01*
X3423442Y20584464D01*
X3368342Y20766100D01*
X3349738Y20955000D01*
X3368342Y21143900D01*
X3423442Y21325536D01*
X3512921Y21492940D01*
X3633335Y21639665D01*
X3780060Y21760079D01*
X3947464Y21849558D01*
X4129100Y21904658D01*
X4270662Y21918600D01*
X4365338Y21918600D01*
X4506900Y21904658D01*
X4506900Y21904658D01*
G37*
G36*
X1966900Y21904658D02*
X2148536Y21849558D01*
X2315940Y21760079D01*
X2462665Y21639665D01*
X2583079Y21492940D01*
X2672558Y21325536D01*
X2727658Y21143900D01*
X2746262Y20955000D01*
X2727658Y20766100D01*
X2672558Y20584464D01*
X2583079Y20417060D01*
X2462665Y20270335D01*
X2315940Y20149921D01*
X2148536Y20060442D01*
X1966900Y20005342D01*
X1825338Y19991400D01*
X1730662Y19991400D01*
X1589100Y20005342D01*
X1407464Y20060442D01*
X1240060Y20149921D01*
X1093335Y20270335D01*
X972921Y20417060D01*
X883442Y20584464D01*
X828342Y20766100D01*
X809738Y20955000D01*
X828342Y21143900D01*
X883442Y21325536D01*
X972921Y21492940D01*
X1093335Y21639665D01*
X1240060Y21760079D01*
X1407464Y21849558D01*
X1589100Y21904658D01*
X1730662Y21918600D01*
X1825338Y21918600D01*
X1966900Y21904658D01*
X1966900Y21904658D01*
G37*
G36*
X1966900Y24444658D02*
X2148536Y24389558D01*
X2315940Y24300079D01*
X2462665Y24179665D01*
X2583079Y24032940D01*
X2672558Y23865536D01*
X2727658Y23683900D01*
X2746262Y23495000D01*
X2727658Y23306100D01*
X2672558Y23124464D01*
X2583079Y22957060D01*
X2462665Y22810335D01*
X2315940Y22689921D01*
X2148536Y22600442D01*
X1966900Y22545342D01*
X1825338Y22531400D01*
X1730662Y22531400D01*
X1589100Y22545342D01*
X1407464Y22600442D01*
X1240060Y22689921D01*
X1093335Y22810335D01*
X972921Y22957060D01*
X883442Y23124464D01*
X828342Y23306100D01*
X809738Y23495000D01*
X828342Y23683900D01*
X883442Y23865536D01*
X972921Y24032940D01*
X1093335Y24179665D01*
X1240060Y24300079D01*
X1407464Y24389558D01*
X1589100Y24444658D01*
X1730662Y24458600D01*
X1825338Y24458600D01*
X1966900Y24444658D01*
X1966900Y24444658D01*
G37*
G36*
X4506900Y24444658D02*
X4688536Y24389558D01*
X4855940Y24300079D01*
X5002665Y24179665D01*
X5123079Y24032940D01*
X5212558Y23865536D01*
X5267658Y23683900D01*
X5286262Y23495000D01*
X5267658Y23306100D01*
X5212558Y23124464D01*
X5123079Y22957060D01*
X5002665Y22810335D01*
X4855940Y22689921D01*
X4688536Y22600442D01*
X4506900Y22545342D01*
X4365338Y22531400D01*
X4270662Y22531400D01*
X4129100Y22545342D01*
X3947464Y22600442D01*
X3780060Y22689921D01*
X3633335Y22810335D01*
X3512921Y22957060D01*
X3423442Y23124464D01*
X3368342Y23306100D01*
X3349738Y23495000D01*
X3368342Y23683900D01*
X3423442Y23865536D01*
X3512921Y24032940D01*
X3633335Y24179665D01*
X3780060Y24300079D01*
X3947464Y24389558D01*
X4129100Y24444658D01*
X4270662Y24458600D01*
X4365338Y24458600D01*
X4506900Y24444658D01*
X4506900Y24444658D01*
G37*
G36*
X1966900Y26984658D02*
X2148536Y26929558D01*
X2315940Y26840079D01*
X2462665Y26719665D01*
X2583079Y26572940D01*
X2672558Y26405536D01*
X2727658Y26223900D01*
X2746262Y26035000D01*
X2727658Y25846100D01*
X2672558Y25664464D01*
X2583079Y25497060D01*
X2462665Y25350335D01*
X2315940Y25229921D01*
X2148536Y25140442D01*
X1966900Y25085342D01*
X1825338Y25071400D01*
X1730662Y25071400D01*
X1589100Y25085342D01*
X1407464Y25140442D01*
X1240060Y25229921D01*
X1093335Y25350335D01*
X972921Y25497060D01*
X883442Y25664464D01*
X828342Y25846100D01*
X809738Y26035000D01*
X828342Y26223900D01*
X883442Y26405536D01*
X972921Y26572940D01*
X1093335Y26719665D01*
X1240060Y26840079D01*
X1407464Y26929558D01*
X1589100Y26984658D01*
X1730662Y26998600D01*
X1825338Y26998600D01*
X1966900Y26984658D01*
X1966900Y26984658D01*
G37*
G36*
X4506900Y26984658D02*
X4688536Y26929558D01*
X4855940Y26840079D01*
X5002665Y26719665D01*
X5123079Y26572940D01*
X5212558Y26405536D01*
X5267658Y26223900D01*
X5286262Y26035000D01*
X5267658Y25846100D01*
X5212558Y25664464D01*
X5123079Y25497060D01*
X5002665Y25350335D01*
X4855940Y25229921D01*
X4688536Y25140442D01*
X4506900Y25085342D01*
X4365338Y25071400D01*
X4270662Y25071400D01*
X4129100Y25085342D01*
X3947464Y25140442D01*
X3780060Y25229921D01*
X3633335Y25350335D01*
X3512921Y25497060D01*
X3423442Y25664464D01*
X3368342Y25846100D01*
X3349738Y26035000D01*
X3368342Y26223900D01*
X3423442Y26405536D01*
X3512921Y26572940D01*
X3633335Y26719665D01*
X3780060Y26840079D01*
X3947464Y26929558D01*
X4129100Y26984658D01*
X4270662Y26998600D01*
X4365338Y26998600D01*
X4506900Y26984658D01*
X4506900Y26984658D01*
G37*
G36*
X37840451Y28049873D02*
X37978105Y28022492D01*
X38150994Y27950879D01*
X38306590Y27846913D01*
X38438913Y27714590D01*
X38542879Y27558994D01*
X38614492Y27386105D01*
X38641873Y27248451D01*
X38651000Y27202568D01*
X38651000Y27015432D01*
X38644878Y26984657D01*
X38614492Y26831895D01*
X38542879Y26659006D01*
X38438913Y26503410D01*
X38306590Y26371087D01*
X38150994Y26267121D01*
X37978105Y26195508D01*
X37840451Y26168127D01*
X37794568Y26159000D01*
X37607432Y26159000D01*
X37561549Y26168127D01*
X37423895Y26195508D01*
X37251006Y26267121D01*
X37095410Y26371087D01*
X36963087Y26503410D01*
X36859121Y26659006D01*
X36787508Y26831895D01*
X36757122Y26984657D01*
X36751000Y27015432D01*
X36751000Y27202568D01*
X36760127Y27248451D01*
X36787508Y27386105D01*
X36859121Y27558994D01*
X36963087Y27714590D01*
X37095410Y27846913D01*
X37251006Y27950879D01*
X37423895Y28022492D01*
X37561549Y28049873D01*
X37607432Y28059000D01*
X37794568Y28059000D01*
X37840451Y28049873D01*
X37840451Y28049873D01*
G37*
G36*
X35255183Y28982100D02*
X35382574Y28929332D01*
X35497225Y28852725D01*
X35594725Y28755225D01*
X35671332Y28640574D01*
X35724100Y28513183D01*
X35751000Y28377945D01*
X35751000Y28240055D01*
X35724100Y28104817D01*
X35671332Y27977426D01*
X35594725Y27862775D01*
X35497225Y27765275D01*
X35382574Y27688668D01*
X35255183Y27635900D01*
X35119945Y27609000D01*
X34982055Y27609000D01*
X34846817Y27635900D01*
X34719426Y27688668D01*
X34604775Y27765275D01*
X34507275Y27862775D01*
X34430668Y27977426D01*
X34377900Y28104817D01*
X34351000Y28240055D01*
X34351000Y28377945D01*
X34377900Y28513183D01*
X34430668Y28640574D01*
X34507275Y28755225D01*
X34604775Y28852725D01*
X34719426Y28929332D01*
X34846817Y28982100D01*
X34982055Y29009000D01*
X35119945Y29009000D01*
X35255183Y28982100D01*
X35255183Y28982100D01*
G37*
G36*
X35255183Y33832100D02*
X35382574Y33779332D01*
X35497225Y33702725D01*
X35594725Y33605225D01*
X35671332Y33490574D01*
X35724100Y33363183D01*
X35751000Y33227945D01*
X35751000Y33090055D01*
X35724100Y32954817D01*
X35671332Y32827426D01*
X35594725Y32712775D01*
X35497225Y32615275D01*
X35382574Y32538668D01*
X35255183Y32485900D01*
X35119945Y32459000D01*
X34982055Y32459000D01*
X34846817Y32485900D01*
X34719426Y32538668D01*
X34604775Y32615275D01*
X34507275Y32712775D01*
X34430668Y32827426D01*
X34377900Y32954817D01*
X34351000Y33090055D01*
X34351000Y33227945D01*
X34377900Y33363183D01*
X34430668Y33490574D01*
X34507275Y33605225D01*
X34604775Y33702725D01*
X34719426Y33779332D01*
X34846817Y33832100D01*
X34982055Y33859000D01*
X35119945Y33859000D01*
X35255183Y33832100D01*
X35255183Y33832100D01*
G37*
G36*
X37840451Y35299873D02*
X37978105Y35272492D01*
X38150994Y35200879D01*
X38306590Y35096913D01*
X38438913Y34964590D01*
X38542879Y34808994D01*
X38614492Y34636105D01*
X38651000Y34452567D01*
X38651000Y34265433D01*
X38614492Y34081895D01*
X38542879Y33909006D01*
X38438913Y33753410D01*
X38306590Y33621087D01*
X38150994Y33517121D01*
X37978105Y33445508D01*
X37840451Y33418127D01*
X37794568Y33409000D01*
X37607432Y33409000D01*
X37561549Y33418127D01*
X37423895Y33445508D01*
X37251006Y33517121D01*
X37095410Y33621087D01*
X36963087Y33753410D01*
X36859121Y33909006D01*
X36787508Y34081895D01*
X36751000Y34265433D01*
X36751000Y34452567D01*
X36787508Y34636105D01*
X36859121Y34808994D01*
X36963087Y34964590D01*
X37095410Y35096913D01*
X37251006Y35200879D01*
X37423895Y35272492D01*
X37561549Y35299873D01*
X37607432Y35309000D01*
X37794568Y35309000D01*
X37840451Y35299873D01*
X37840451Y35299873D01*
G37*
G36*
X38404209Y43076984D02*
X38749986Y42933759D01*
X39061182Y42725824D01*
X39325824Y42461182D01*
X39533759Y42149986D01*
X39676984Y41804209D01*
X39750000Y41437135D01*
X39750000Y41062865D01*
X39676984Y40695791D01*
X39533759Y40350014D01*
X39325824Y40038818D01*
X39061182Y39774176D01*
X38749986Y39566241D01*
X38404209Y39423016D01*
X38037135Y39350000D01*
X37662865Y39350000D01*
X37295791Y39423016D01*
X36950014Y39566241D01*
X36638818Y39774176D01*
X36374176Y40038818D01*
X36166241Y40350014D01*
X36023016Y40695791D01*
X35950000Y41062865D01*
X35950000Y41437135D01*
X36023016Y41804209D01*
X36166241Y42149986D01*
X36374176Y42461182D01*
X36638818Y42725824D01*
X36950014Y42933759D01*
X37295791Y43076984D01*
X37662865Y43150000D01*
X38037135Y43150000D01*
X38404209Y43076984D01*
X38404209Y43076984D01*
G37*
G36*
X2704209Y43076984D02*
X3049986Y42933759D01*
X3361182Y42725824D01*
X3625824Y42461182D01*
X3833759Y42149986D01*
X3976984Y41804209D01*
X4050000Y41437135D01*
X4050000Y41062865D01*
X3976984Y40695791D01*
X3833759Y40350014D01*
X3625824Y40038818D01*
X3361182Y39774176D01*
X3049986Y39566241D01*
X2704209Y39423016D01*
X2337135Y39350000D01*
X1962865Y39350000D01*
X1595791Y39423016D01*
X1250014Y39566241D01*
X938818Y39774176D01*
X674176Y40038818D01*
X466241Y40350014D01*
X323016Y40695791D01*
X250000Y41062865D01*
X250000Y41437135D01*
X323016Y41804209D01*
X466241Y42149986D01*
X674176Y42461182D01*
X938818Y42725824D01*
X1250014Y42933759D01*
X1595791Y43076984D01*
X1962865Y43150000D01*
X2337135Y43150000D01*
X2704209Y43076984D01*
X2704209Y43076984D01*
G37*
G36*
X3112547Y50519299D02*
X3494722Y50360997D01*
X3609373Y50284390D01*
X3838672Y50131177D01*
X4131177Y49838672D01*
X4164530Y49788755D01*
X4360997Y49494722D01*
X4519299Y49112547D01*
X4600000Y48706833D01*
X4600000Y48293167D01*
X4519299Y47887453D01*
X4360997Y47505278D01*
X4284390Y47390627D01*
X4131177Y47161328D01*
X3838672Y46868823D01*
X3609373Y46715610D01*
X3494722Y46639003D01*
X3112547Y46480701D01*
X2706833Y46400000D01*
X2293167Y46400000D01*
X1887453Y46480701D01*
X1505278Y46639003D01*
X1390627Y46715610D01*
X1161328Y46868823D01*
X868823Y47161328D01*
X715610Y47390627D01*
X639003Y47505278D01*
X480701Y47887453D01*
X400000Y48293167D01*
X400000Y48706833D01*
X480701Y49112547D01*
X639003Y49494722D01*
X835470Y49788755D01*
X868823Y49838672D01*
X1161328Y50131177D01*
X1390627Y50284390D01*
X1505278Y50360997D01*
X1887453Y50519299D01*
X2293167Y50600000D01*
X2706833Y50600000D01*
X3112547Y50519299D01*
X3112547Y50519299D01*
G37*
G36*
X38112547Y50519299D02*
X38494722Y50360997D01*
X38609373Y50284390D01*
X38838672Y50131177D01*
X39131177Y49838672D01*
X39164530Y49788755D01*
X39360997Y49494722D01*
X39519299Y49112547D01*
X39600000Y48706833D01*
X39600000Y48293167D01*
X39519299Y47887453D01*
X39360997Y47505278D01*
X39284390Y47390627D01*
X39131177Y47161328D01*
X38838672Y46868823D01*
X38609373Y46715610D01*
X38494722Y46639003D01*
X38112547Y46480701D01*
X37706833Y46400000D01*
X37293167Y46400000D01*
X36887453Y46480701D01*
X36505278Y46639003D01*
X36390627Y46715610D01*
X36161328Y46868823D01*
X35868823Y47161328D01*
X35715610Y47390627D01*
X35639003Y47505278D01*
X35480701Y47887453D01*
X35400000Y48293167D01*
X35400000Y48706833D01*
X35480701Y49112547D01*
X35639003Y49494722D01*
X35835470Y49788755D01*
X35868823Y49838672D01*
X36161328Y50131177D01*
X36390627Y50284390D01*
X36505278Y50360997D01*
X36887453Y50519299D01*
X37293167Y50600000D01*
X37706833Y50600000D01*
X38112547Y50519299D01*
X38112547Y50519299D01*
G37*
G36*
X21778900Y48955658D02*
X21960536Y48900558D01*
X22127940Y48811079D01*
X22274665Y48690665D01*
X22395079Y48543940D01*
X22484558Y48376536D01*
X22539658Y48194900D01*
X22558262Y48006000D01*
X22539658Y47817100D01*
X22484558Y47635464D01*
X22395079Y47468060D01*
X22274665Y47321335D01*
X22127940Y47200921D01*
X21960536Y47111442D01*
X21778900Y47056342D01*
X21637338Y47042400D01*
X21542662Y47042400D01*
X21401100Y47056342D01*
X21219464Y47111442D01*
X21052060Y47200921D01*
X20905335Y47321335D01*
X20784921Y47468060D01*
X20695442Y47635464D01*
X20640342Y47817100D01*
X20621738Y48006000D01*
X20640342Y48194900D01*
X20695442Y48376536D01*
X20784921Y48543940D01*
X20905335Y48690665D01*
X21052060Y48811079D01*
X21219464Y48900558D01*
X21401100Y48955658D01*
X21542662Y48969600D01*
X21637338Y48969600D01*
X21778900Y48955658D01*
X21778900Y48955658D01*
G37*
G36*
X24318900Y48955658D02*
X24500536Y48900558D01*
X24667940Y48811079D01*
X24814665Y48690665D01*
X24935079Y48543940D01*
X25024558Y48376536D01*
X25079658Y48194900D01*
X25098262Y48006000D01*
X25079658Y47817100D01*
X25024558Y47635464D01*
X24935079Y47468060D01*
X24814665Y47321335D01*
X24667940Y47200921D01*
X24500536Y47111442D01*
X24318900Y47056342D01*
X24177338Y47042400D01*
X24082662Y47042400D01*
X23941100Y47056342D01*
X23759464Y47111442D01*
X23592060Y47200921D01*
X23445335Y47321335D01*
X23324921Y47468060D01*
X23235442Y47635464D01*
X23180342Y47817100D01*
X23161738Y48006000D01*
X23180342Y48194900D01*
X23235442Y48376536D01*
X23324921Y48543940D01*
X23445335Y48690665D01*
X23592060Y48811079D01*
X23759464Y48900558D01*
X23941100Y48955658D01*
X24082662Y48969600D01*
X24177338Y48969600D01*
X24318900Y48955658D01*
X24318900Y48955658D01*
G37*
G36*
X19238900Y48955658D02*
X19420536Y48900558D01*
X19587940Y48811079D01*
X19734665Y48690665D01*
X19855079Y48543940D01*
X19944558Y48376536D01*
X19999658Y48194900D01*
X20018262Y48006000D01*
X19999658Y47817100D01*
X19944558Y47635464D01*
X19855079Y47468060D01*
X19734665Y47321335D01*
X19587940Y47200921D01*
X19420536Y47111442D01*
X19238900Y47056342D01*
X19097338Y47042400D01*
X19002662Y47042400D01*
X18861100Y47056342D01*
X18679464Y47111442D01*
X18512060Y47200921D01*
X18365335Y47321335D01*
X18244921Y47468060D01*
X18155442Y47635464D01*
X18100342Y47817100D01*
X18081738Y48006000D01*
X18100342Y48194900D01*
X18155442Y48376536D01*
X18244921Y48543940D01*
X18365335Y48690665D01*
X18512060Y48811079D01*
X18679464Y48900558D01*
X18861100Y48955658D01*
X19002662Y48969600D01*
X19097338Y48969600D01*
X19238900Y48955658D01*
X19238900Y48955658D01*
G37*
G36*
X16698900Y48955658D02*
X16880536Y48900558D01*
X17047940Y48811079D01*
X17194665Y48690665D01*
X17315079Y48543940D01*
X17404558Y48376536D01*
X17459658Y48194900D01*
X17478262Y48006000D01*
X17459658Y47817100D01*
X17404558Y47635464D01*
X17315079Y47468060D01*
X17194665Y47321335D01*
X17047940Y47200921D01*
X16880536Y47111442D01*
X16698900Y47056342D01*
X16557338Y47042400D01*
X16462662Y47042400D01*
X16321100Y47056342D01*
X16139464Y47111442D01*
X15972060Y47200921D01*
X15825335Y47321335D01*
X15704921Y47468060D01*
X15615442Y47635464D01*
X15560342Y47817100D01*
X15541738Y48006000D01*
X15560342Y48194900D01*
X15615442Y48376536D01*
X15704921Y48543940D01*
X15825335Y48690665D01*
X15972060Y48811079D01*
X16139464Y48900558D01*
X16321100Y48955658D01*
X16462662Y48969600D01*
X16557338Y48969600D01*
X16698900Y48955658D01*
X16698900Y48955658D01*
G37*
G36*
X14158900Y48955658D02*
X14340536Y48900558D01*
X14507940Y48811079D01*
X14654665Y48690665D01*
X14775079Y48543940D01*
X14864558Y48376536D01*
X14919658Y48194900D01*
X14938262Y48006000D01*
X14919658Y47817100D01*
X14864558Y47635464D01*
X14775079Y47468060D01*
X14654665Y47321335D01*
X14507940Y47200921D01*
X14340536Y47111442D01*
X14158900Y47056342D01*
X14017338Y47042400D01*
X13922662Y47042400D01*
X13781100Y47056342D01*
X13599464Y47111442D01*
X13432060Y47200921D01*
X13285335Y47321335D01*
X13164921Y47468060D01*
X13075442Y47635464D01*
X13020342Y47817100D01*
X13001738Y48006000D01*
X13020342Y48194900D01*
X13075442Y48376536D01*
X13164921Y48543940D01*
X13285335Y48690665D01*
X13432060Y48811079D01*
X13599464Y48900558D01*
X13781100Y48955658D01*
X13922662Y48969600D01*
X14017338Y48969600D01*
X14158900Y48955658D01*
X14158900Y48955658D01*
G37*
G36*
X11618900Y48955658D02*
X11800536Y48900558D01*
X11967940Y48811079D01*
X12114665Y48690665D01*
X12235079Y48543940D01*
X12324558Y48376536D01*
X12379658Y48194900D01*
X12398262Y48006000D01*
X12379658Y47817100D01*
X12324558Y47635464D01*
X12235079Y47468060D01*
X12114665Y47321335D01*
X11967940Y47200921D01*
X11800536Y47111442D01*
X11618900Y47056342D01*
X11477338Y47042400D01*
X11382662Y47042400D01*
X11241100Y47056342D01*
X11059464Y47111442D01*
X10892060Y47200921D01*
X10745335Y47321335D01*
X10624921Y47468060D01*
X10535442Y47635464D01*
X10480342Y47817100D01*
X10461738Y48006000D01*
X10480342Y48194900D01*
X10535442Y48376536D01*
X10624921Y48543940D01*
X10745335Y48690665D01*
X10892060Y48811079D01*
X11059464Y48900558D01*
X11241100Y48955658D01*
X11382662Y48969600D01*
X11477338Y48969600D01*
X11618900Y48955658D01*
X11618900Y48955658D01*
G37*
G36*
X32999845Y50318785D02*
X33090839Y50281094D01*
X33171640Y50227104D01*
X33172734Y50226373D01*
X33242373Y50156734D01*
X33297095Y50074837D01*
X33334785Y49983845D01*
X33354000Y49887245D01*
X33354000Y49788755D01*
X33334785Y49692155D01*
X33297095Y49601163D01*
X33242373Y49519266D01*
X33172734Y49449627D01*
X33172731Y49449625D01*
X33090839Y49394906D01*
X32999845Y49357215D01*
X32903246Y49338000D01*
X32804754Y49338000D01*
X32708155Y49357215D01*
X32617161Y49394906D01*
X32535269Y49449625D01*
X32535266Y49449627D01*
X32465627Y49519266D01*
X32410905Y49601163D01*
X32373215Y49692155D01*
X32354000Y49788755D01*
X32354000Y49887245D01*
X32373215Y49983845D01*
X32410905Y50074837D01*
X32465627Y50156734D01*
X32535266Y50226373D01*
X32536360Y50227104D01*
X32617161Y50281094D01*
X32708155Y50318785D01*
X32804754Y50338000D01*
X32903246Y50338000D01*
X32999845Y50318785D01*
X32999845Y50318785D01*
G37*
G36*
X31299845Y50318785D02*
X31390839Y50281094D01*
X31471640Y50227104D01*
X31472734Y50226373D01*
X31542373Y50156734D01*
X31597095Y50074837D01*
X31634785Y49983845D01*
X31654000Y49887245D01*
X31654000Y49788755D01*
X31634785Y49692155D01*
X31597095Y49601163D01*
X31542373Y49519266D01*
X31472734Y49449627D01*
X31472731Y49449625D01*
X31390839Y49394906D01*
X31299845Y49357215D01*
X31203246Y49338000D01*
X31104754Y49338000D01*
X31008155Y49357215D01*
X30917161Y49394906D01*
X30835269Y49449625D01*
X30835266Y49449627D01*
X30765627Y49519266D01*
X30710905Y49601163D01*
X30673215Y49692155D01*
X30654000Y49788755D01*
X30654000Y49887245D01*
X30673215Y49983845D01*
X30710905Y50074837D01*
X30765627Y50156734D01*
X30835266Y50226373D01*
X30836360Y50227104D01*
X30917161Y50281094D01*
X31008155Y50318785D01*
X31104754Y50338000D01*
X31203246Y50338000D01*
X31299845Y50318785D01*
X31299845Y50318785D01*
G37*
M02*
