%TF.GenerationSoftware,KiCad,Pcbnew,(5.0.1)-3*%
%TF.CreationDate,2018-10-26T14:13:05+13:00*%
%TF.ProjectId,TINY-REFLOW-CONTROLLER,54494E592D5245464C4F572D434F4E54,rev?*%
%TF.SameCoordinates,PX8f0d180PY5f5e100*%
%TF.FileFunction,Copper,L2,Bot,Signal*%
%TF.FilePolarity,Positive*%
%FSLAX46Y46*%
G04 Gerber Fmt 4.6, Leading zero omitted, Abs format (unit mm)*
G04 Created by KiCad (PCBNEW (5.0.1)-3) date 26/10/2018 14:13:05*
%MOMM*%
%LPD*%
G01*
G04 APERTURE LIST*
%TA.AperFunction,ComponentPad*%
%ADD10C,1.200000*%
%TD*%
%TA.AperFunction,ComponentPad*%
%ADD11C,1.700000*%
%TD*%
%TA.AperFunction,ComponentPad*%
%ADD12O,1.727200X1.727200*%
%TD*%
%TA.AperFunction,ComponentPad*%
%ADD13C,1.848000*%
%TD*%
%TA.AperFunction,ViaPad*%
%ADD14C,0.500000*%
%TD*%
%TA.AperFunction,Conductor*%
%ADD15C,0.381000*%
%TD*%
%TA.AperFunction,Conductor*%
%ADD16C,0.254000*%
%TD*%
%TA.AperFunction,Conductor*%
%ADD17C,0.508000*%
%TD*%
%TA.AperFunction,Conductor*%
%ADD18C,0.253000*%
%TD*%
G04 APERTURE END LIST*
D10*
%TO.P,J3,6*%
%TO.N,Net-(J3-Pad6)*%
X35051000Y28309000D03*
%TO.P,J3,7*%
%TO.N,Net-(J3-Pad7)*%
X35051000Y33159000D03*
D11*
%TO.P,J3,8*%
%TO.N,Net-(J3-Pad8)*%
X37701000Y27109000D03*
%TO.P,J3,9*%
%TO.N,Net-(J3-Pad9)*%
X37701000Y34359000D03*
%TD*%
D12*
%TO.P,J5,1*%
%TO.N,Net-(C7-Pad1)*%
X24130000Y48006000D03*
%TO.P,J5,2*%
%TO.N,/D0*%
X21590000Y48006000D03*
%TO.P,J5,3*%
%TO.N,/D1*%
X19050000Y48006000D03*
%TO.P,J5,4*%
%TO.N,VUSB*%
X16510000Y48006000D03*
%TO.P,J5,5*%
%TO.N,Net-(J5-Pad5)*%
X13970000Y48006000D03*
%TO.P,J5,6*%
%TO.N,GND*%
X11430000Y48006000D03*
%TD*%
%TO.P,J4,1*%
%TO.N,/D15*%
X4318000Y26035000D03*
%TO.P,J4,2*%
%TO.N,3V3*%
X1778000Y26035000D03*
%TO.P,J4,3*%
%TO.N,/D12*%
X4318000Y23495000D03*
%TO.P,J4,4*%
%TO.N,/D16*%
X1778000Y23495000D03*
%TO.P,J4,5*%
%TO.N,/RST*%
X4318000Y20955000D03*
%TO.P,J4,6*%
%TO.N,GND*%
X1778000Y20955000D03*
%TD*%
D13*
%TO.P,J2,1*%
%TO.N,3V3*%
X14605000Y6350000D03*
%TO.P,J2,2*%
%TO.N,Net-(J2-Pad2)*%
X18105000Y6350000D03*
%TD*%
%TO.P,J1,1*%
%TO.N,/TC-*%
X7620000Y6350000D03*
%TO.P,J1,2*%
%TO.N,/TC+*%
X11120000Y6350000D03*
%TD*%
D14*
%TO.N,GND*%
X10160000Y11430000D03*
X30480000Y6350000D03*
X35560000Y6350000D03*
X34290000Y5080000D03*
X25400000Y2540000D03*
X25400000Y5080000D03*
X24130000Y3810000D03*
X12700000Y5080000D03*
X10160000Y5080000D03*
X13970000Y1270000D03*
X11430000Y1270000D03*
X6350000Y1270000D03*
X5080000Y2540000D03*
X6350000Y3810000D03*
X7620000Y2540000D03*
X8890000Y3810000D03*
X10160000Y2540000D03*
X11430000Y3810000D03*
X12700000Y2540000D03*
X13970000Y3810000D03*
X15240000Y2540000D03*
X16510000Y3810000D03*
X17780000Y2540000D03*
X19050000Y3810000D03*
X20320000Y2540000D03*
X20320000Y5080000D03*
X20320000Y7620000D03*
X20320000Y10160000D03*
X20320000Y12700000D03*
X20320000Y15240000D03*
X21590000Y13970000D03*
X25400000Y10160000D03*
X24130000Y11430000D03*
X21590000Y8890000D03*
X21590000Y6350000D03*
X22860000Y5080000D03*
X24130000Y6350000D03*
X22860000Y7620000D03*
X24130000Y8890000D03*
X25400000Y7620000D03*
X8890000Y7620000D03*
X10160000Y8890000D03*
X8890000Y10160000D03*
X36830000Y25400000D03*
X34290000Y22860000D03*
X34290000Y17780000D03*
X36830000Y38100000D03*
X34290000Y43180000D03*
X34290000Y40640000D03*
X35560000Y39370000D03*
X34290000Y38100000D03*
X35560000Y36830000D03*
X34290000Y35560000D03*
X33020000Y31750000D03*
X33020000Y34290000D03*
X34290000Y7620000D03*
X31750000Y5080000D03*
X33020000Y6350000D03*
X31750000Y7620000D03*
X33020000Y8890000D03*
X31750000Y10160000D03*
X31750000Y12700000D03*
X33020000Y13970000D03*
X34290000Y15240000D03*
X35560000Y21590000D03*
X35560000Y13970000D03*
X36830000Y15240000D03*
X35560000Y16510000D03*
X35560000Y19050000D03*
X25400000Y21590000D03*
X27940000Y24130000D03*
X27940000Y26670000D03*
X27940000Y29210000D03*
X26670000Y27940000D03*
X26670000Y25400000D03*
X26670000Y22860000D03*
X24130000Y20320000D03*
X6350000Y16510000D03*
X6350000Y19050000D03*
X8890000Y19050000D03*
X10160000Y17780000D03*
X7620000Y20320000D03*
X17780000Y20320000D03*
X12700000Y10160000D03*
X12700000Y12700000D03*
X5080000Y48260000D03*
X38100000Y45720000D03*
X5080000Y40640000D03*
X7620000Y43180000D03*
X10160000Y40640000D03*
X22860000Y35560000D03*
X20320000Y35560000D03*
X7620000Y27940000D03*
X10160000Y20320000D03*
X7620000Y17780000D03*
X15240000Y20320000D03*
X20320000Y20320000D03*
X10160000Y38100000D03*
X10160000Y43180000D03*
X7620000Y40640000D03*
X7620000Y33020000D03*
X2540000Y33020000D03*
X2540000Y38100000D03*
X5080000Y43180000D03*
X2540000Y45720000D03*
X28956000Y43942000D03*
X30226000Y41402000D03*
X21844000Y25400000D03*
X22098000Y29210000D03*
X17018000Y25146000D03*
X17526000Y29210000D03*
X19558000Y27178000D03*
X20174000Y27810000D03*
X20174000Y26610000D03*
X18974000Y26610000D03*
X18974000Y27810000D03*
%TO.N,/TC-*%
X6616000Y10680000D03*
X8128000Y14732000D03*
%TO.N,3V3*%
X27940000Y34544000D03*
X27432000Y34036000D03*
X12700000Y41656000D03*
X12192000Y41656000D03*
X11684000Y41656000D03*
X17526000Y31496000D03*
X17526000Y32004000D03*
X11633000Y26797000D03*
X11633000Y27432000D03*
X11633000Y28067000D03*
X12446000Y17526000D03*
X12434000Y21832000D03*
X25908000Y15240000D03*
X25146000Y15240000D03*
X24384000Y15240000D03*
X25908000Y15748000D03*
X25146000Y15748000D03*
X24384000Y15748000D03*
%TO.N,/D12*%
X10287000Y25019000D03*
X10302000Y22718000D03*
%TO.N,/D16*%
X9652000Y23241000D03*
%TO.N,/D15*%
X9002000Y22733000D03*
%TO.N,/RST*%
X17293783Y22584217D03*
X21971000Y22860000D03*
X15113000Y27710000D03*
X24257000Y22860000D03*
%TO.N,VUSB*%
X30099000Y23114000D03*
X30861000Y23876000D03*
X30099000Y23876000D03*
%TO.N,/D14*%
X15748000Y28448000D03*
X15748000Y24638000D03*
%TO.N,/D11*%
X9398000Y25019000D03*
X8352000Y23592000D03*
%TO.N,/D0*%
X21971000Y23622000D03*
X24257000Y23622000D03*
%TO.N,/D1*%
X24257000Y24384000D03*
X21971000Y24384000D03*
%TD*%
D15*
%TO.N,GND*%
X8890000Y10160000D02*
X10160000Y11430000D01*
X34290000Y5080000D02*
X35560000Y6350000D01*
X24130000Y3810000D02*
X25400000Y2540000D01*
X22860000Y5080000D02*
X24130000Y3810000D01*
X8890000Y3810000D02*
X10160000Y5080000D01*
X10160000Y2540000D02*
X11430000Y1270000D01*
X6350000Y3810000D02*
X5080000Y2540000D01*
X8890000Y3810000D02*
X7620000Y2540000D01*
X11430000Y3810000D02*
X10160000Y2540000D01*
X13970000Y3810000D02*
X12700000Y2540000D01*
X16510000Y3810000D02*
X15240000Y2540000D01*
X19050000Y3810000D02*
X17780000Y2540000D01*
X20320000Y5080000D02*
X20320000Y2540000D01*
X21590000Y8890000D02*
X20320000Y7620000D01*
X20320000Y15240000D02*
X20320000Y12700000D01*
X24130000Y11430000D02*
X21590000Y13970000D01*
X24130000Y11430000D02*
X25400000Y10160000D01*
X21590000Y6350000D02*
X21590000Y8890000D01*
X24130000Y6350000D02*
X22860000Y5080000D01*
X24130000Y8890000D02*
X22860000Y7620000D01*
X31750000Y7620000D02*
X25400000Y7620000D01*
X10160000Y8890000D02*
X8890000Y7620000D01*
X12700000Y10160000D02*
X8890000Y10160000D01*
X35560000Y21590000D02*
X34290000Y22860000D01*
X34290000Y38100000D02*
X36830000Y38100000D01*
X34290000Y40640000D02*
X34290000Y43180000D01*
D16*
X34290000Y40640000D02*
X33528000Y41402000D01*
D15*
X35560000Y39370000D02*
X34290000Y40640000D01*
D16*
X35560000Y39370000D02*
X35560000Y43180000D01*
X33528000Y41402000D02*
X30226000Y41402000D01*
X35560000Y43180000D02*
X38100000Y45720000D01*
D15*
X34290000Y35560000D02*
X35560000Y36830000D01*
X33020000Y34290000D02*
X33020000Y31750000D01*
X33020000Y6350000D02*
X31750000Y5080000D01*
X33020000Y8890000D02*
X31750000Y7620000D01*
X31750000Y12700000D02*
X31750000Y10160000D01*
X35560000Y13970000D02*
X33020000Y13970000D01*
X35560000Y19050000D02*
X35560000Y21590000D01*
X35560000Y16510000D02*
X36830000Y15240000D01*
X30480000Y19050000D02*
X35560000Y19050000D01*
X26670000Y22860000D02*
X30480000Y19050000D01*
X27940000Y26670000D02*
X27940000Y24130000D01*
X26670000Y27940000D02*
X27940000Y29210000D01*
X26670000Y22860000D02*
X26670000Y25400000D01*
X20320000Y20320000D02*
X24130000Y20320000D01*
D16*
X7620000Y20320000D02*
X6350000Y19050000D01*
X7620000Y20320000D02*
X10160000Y17780000D01*
X15240000Y20320000D02*
X17780000Y20320000D01*
X7620000Y17780000D02*
X12700000Y12700000D01*
X5080000Y43180000D02*
X5080000Y40640000D01*
X20320000Y35560000D02*
X22860000Y35560000D01*
X7620000Y33020000D02*
X7620000Y27940000D01*
X1778000Y18542000D02*
X2540000Y17780000D01*
X2540000Y17780000D02*
X7620000Y17780000D01*
X1778000Y20955000D02*
X1778000Y18542000D01*
X20174000Y26610000D02*
X20174000Y20466000D01*
X20174000Y20466000D02*
X20320000Y20320000D01*
X7620000Y40640000D02*
X10160000Y43180000D01*
X2540000Y33020000D02*
X7620000Y33020000D01*
X5080000Y40640000D02*
X2540000Y38100000D01*
X7366000Y48006000D02*
X5080000Y45720000D01*
X5080000Y45720000D02*
X2540000Y45720000D01*
X11430000Y48006000D02*
X7366000Y48006000D01*
X29210000Y41910000D02*
X28956000Y42164000D01*
X28956000Y42164000D02*
X28956000Y43942000D01*
X29718000Y41402000D02*
X29210000Y41910000D01*
X30226000Y41402000D02*
X29718000Y41402000D01*
X22098000Y29210000D02*
X22098000Y25654000D01*
X22098000Y25654000D02*
X21844000Y25400000D01*
X17526000Y29210000D02*
X22098000Y29210000D01*
X17018000Y28702000D02*
X17018000Y25146000D01*
X17526000Y29210000D02*
X17018000Y28702000D01*
X18974000Y27810000D02*
X18926000Y27810000D01*
X18926000Y27810000D02*
X17526000Y29210000D01*
X18974000Y26610000D02*
X18990000Y26610000D01*
X18990000Y26610000D02*
X19558000Y27178000D01*
%TO.N,/TC-*%
X6616000Y10680000D02*
X7378000Y10680000D01*
X7378000Y10680000D02*
X7620000Y10922000D01*
X7620000Y14224000D02*
X7620000Y10922000D01*
X8128000Y14732000D02*
X7620000Y14224000D01*
D17*
%TO.N,3V3*%
X27432000Y34036000D02*
X27432000Y32004000D01*
X27178000Y31750000D02*
X17780000Y31750000D01*
X27432000Y32004000D02*
X27178000Y31750000D01*
D16*
X17780000Y31750000D02*
X17526000Y31496000D01*
D17*
X12192000Y41656000D02*
X12192000Y28626000D01*
X12192000Y28626000D02*
X11633000Y28067000D01*
X11684000Y41656000D02*
X12192000Y41656000D01*
D16*
X17526000Y32004000D02*
X17526000Y31496000D01*
D17*
X15494000Y17272000D02*
X15494000Y7239000D01*
X15494000Y7239000D02*
X14605000Y6350000D01*
X16002000Y17780000D02*
X15494000Y17272000D01*
X25908000Y17780000D02*
X16002000Y17780000D01*
X25908000Y15748000D02*
X25908000Y17780000D01*
X24384000Y15748000D02*
X24384000Y17780000D01*
X24384000Y17780000D02*
X14986000Y17780000D01*
X14986000Y17780000D02*
X13716000Y16510000D01*
X13716000Y16510000D02*
X13716000Y7239000D01*
X13716000Y7239000D02*
X14605000Y6350000D01*
D16*
X12446000Y17526000D02*
X24638000Y17526000D01*
X24638000Y17526000D02*
X25146000Y17018000D01*
X25146000Y17018000D02*
X25146000Y15748000D01*
X12434000Y21832000D02*
X12434000Y17538000D01*
X12434000Y17538000D02*
X12446000Y17526000D01*
X25146000Y15240000D02*
X25908000Y15240000D01*
X24384000Y15748000D02*
X24384000Y15240000D01*
X25146000Y15748000D02*
X24384000Y15748000D01*
%TO.N,/D12*%
X10302000Y22718000D02*
X10302000Y22240000D01*
X10302000Y22240000D02*
X9652000Y21590000D01*
X9652000Y21590000D02*
X6223000Y21590000D01*
X6223000Y21590000D02*
X4318000Y23495000D01*
X10287000Y25019000D02*
X10302000Y25004000D01*
X10302000Y25004000D02*
X10302000Y22718000D01*
%TO.N,/D16*%
X9652000Y23241000D02*
X9652000Y22449118D01*
X9652000Y22449118D02*
X9300882Y22098000D01*
X9300882Y22098000D02*
X6604000Y22098000D01*
X3073399Y24790399D02*
X1778000Y23495000D01*
X6604000Y22098000D02*
X5588000Y23114000D01*
X5588000Y23114000D02*
X5588000Y24130000D01*
X5588000Y24130000D02*
X4927601Y24790399D01*
X4927601Y24790399D02*
X3073399Y24790399D01*
%TO.N,/D15*%
X4318000Y26035000D02*
X4445000Y26035000D01*
X8875000Y22606000D02*
X9002000Y22733000D01*
X4445000Y26035000D02*
X6096000Y24384000D01*
X6858000Y22606000D02*
X8875000Y22606000D01*
X6096000Y24384000D02*
X6096000Y23368000D01*
X6096000Y23368000D02*
X6858000Y22606000D01*
%TO.N,/RST*%
X17293783Y22584217D02*
X16785783Y22584217D01*
X16785783Y22584217D02*
X15113000Y24257000D01*
X15113000Y24257000D02*
X15113000Y27710000D01*
X21971000Y22860000D02*
X24257000Y22860000D01*
%TO.N,VUSB*%
X30861000Y23876000D02*
X30099000Y23876000D01*
X30861000Y23876000D02*
X30734000Y24003000D01*
X30734000Y24003000D02*
X30734000Y37846000D01*
X30734000Y37846000D02*
X16510000Y37846000D01*
X16510000Y37846000D02*
X16510000Y48006000D01*
%TO.N,/D14*%
X15748000Y28448000D02*
X15748000Y24638000D01*
X15769783Y24659783D02*
X15748000Y24638000D01*
%TO.N,/D11*%
X9398000Y25019000D02*
X9398000Y24130000D01*
X9398000Y24130000D02*
X8860000Y23592000D01*
X8860000Y23592000D02*
X8352000Y23592000D01*
%TO.N,/D0*%
X21971000Y23622000D02*
X24257000Y23622000D01*
%TO.N,/D1*%
X24257000Y24384000D02*
X21971000Y24384000D01*
%TD*%
%TO.N,VUSB*%
G36*
X16764000Y48260000D02*
X16784000Y48260000D01*
X16784000Y47752000D01*
X16764000Y47752000D01*
X16764000Y46882832D01*
X16951475Y46842317D01*
X17170015Y46950804D01*
X17208500Y46980496D01*
X17208500Y38858000D01*
X17210940Y38833224D01*
X17229970Y38737553D01*
X17237197Y38713728D01*
X17248933Y38691772D01*
X17303126Y38610666D01*
X17318920Y38591421D01*
X17338166Y38575626D01*
X17419272Y38521433D01*
X17441229Y38509697D01*
X17465053Y38502470D01*
X17560724Y38483440D01*
X17585500Y38481000D01*
X30979491Y38481000D01*
X31038119Y38469338D01*
X31077215Y38443215D01*
X31103338Y38404119D01*
X31115000Y38345491D01*
X31115000Y22360509D01*
X31103338Y22301881D01*
X31077215Y22262785D01*
X31038119Y22236662D01*
X30979491Y22225000D01*
X29980509Y22225000D01*
X29921881Y22236662D01*
X29882785Y22262785D01*
X29856662Y22301881D01*
X29845000Y22360509D01*
X29845000Y36834000D01*
X29842560Y36858776D01*
X29823530Y36954447D01*
X29816303Y36978272D01*
X29804567Y37000228D01*
X29750374Y37081334D01*
X29734580Y37100579D01*
X29715334Y37116374D01*
X29634228Y37170567D01*
X29612271Y37182303D01*
X29588447Y37189530D01*
X29492776Y37208560D01*
X29468000Y37211000D01*
X15947009Y37211000D01*
X15888381Y37222662D01*
X15849285Y37248785D01*
X15823162Y37287881D01*
X15811500Y37346509D01*
X15811500Y46980496D01*
X15849985Y46950804D01*
X16068525Y46842317D01*
X16256000Y46882832D01*
X16256000Y47752000D01*
X16236000Y47752000D01*
X16236000Y48260000D01*
X16256000Y48260000D01*
X16256000Y48280000D01*
X16764000Y48280000D01*
X16764000Y48260000D01*
X16764000Y48260000D01*
G37*
X16764000Y48260000D02*
X16784000Y48260000D01*
X16784000Y47752000D01*
X16764000Y47752000D01*
X16764000Y46882832D01*
X16951475Y46842317D01*
X17170015Y46950804D01*
X17208500Y46980496D01*
X17208500Y38858000D01*
X17210940Y38833224D01*
X17229970Y38737553D01*
X17237197Y38713728D01*
X17248933Y38691772D01*
X17303126Y38610666D01*
X17318920Y38591421D01*
X17338166Y38575626D01*
X17419272Y38521433D01*
X17441229Y38509697D01*
X17465053Y38502470D01*
X17560724Y38483440D01*
X17585500Y38481000D01*
X30979491Y38481000D01*
X31038119Y38469338D01*
X31077215Y38443215D01*
X31103338Y38404119D01*
X31115000Y38345491D01*
X31115000Y22360509D01*
X31103338Y22301881D01*
X31077215Y22262785D01*
X31038119Y22236662D01*
X30979491Y22225000D01*
X29980509Y22225000D01*
X29921881Y22236662D01*
X29882785Y22262785D01*
X29856662Y22301881D01*
X29845000Y22360509D01*
X29845000Y36834000D01*
X29842560Y36858776D01*
X29823530Y36954447D01*
X29816303Y36978272D01*
X29804567Y37000228D01*
X29750374Y37081334D01*
X29734580Y37100579D01*
X29715334Y37116374D01*
X29634228Y37170567D01*
X29612271Y37182303D01*
X29588447Y37189530D01*
X29492776Y37208560D01*
X29468000Y37211000D01*
X15947009Y37211000D01*
X15888381Y37222662D01*
X15849285Y37248785D01*
X15823162Y37287881D01*
X15811500Y37346509D01*
X15811500Y46980496D01*
X15849985Y46950804D01*
X16068525Y46842317D01*
X16256000Y46882832D01*
X16256000Y47752000D01*
X16236000Y47752000D01*
X16236000Y48260000D01*
X16256000Y48260000D01*
X16256000Y48280000D01*
X16764000Y48280000D01*
X16764000Y48260000D01*
D18*
%TO.N,GND*%
G36*
X30784294Y50529671D02*
X30656460Y50444254D01*
X30547746Y50335540D01*
X30462329Y50207706D01*
X30403494Y50065664D01*
X30373500Y49914873D01*
X30373500Y49761127D01*
X30403494Y49610336D01*
X30462329Y49468294D01*
X30547746Y49340460D01*
X30656460Y49231746D01*
X30784294Y49146329D01*
X30926336Y49087494D01*
X31077127Y49057500D01*
X31230873Y49057500D01*
X31381664Y49087494D01*
X31523706Y49146329D01*
X31651540Y49231746D01*
X31760254Y49340460D01*
X31845671Y49468294D01*
X31904506Y49610336D01*
X31934500Y49761127D01*
X31934500Y49914873D01*
X31904506Y50065664D01*
X31845671Y50207706D01*
X31760254Y50335540D01*
X31651540Y50444254D01*
X31523706Y50529671D01*
X31487905Y50544500D01*
X32520095Y50544500D01*
X32484294Y50529671D01*
X32356460Y50444254D01*
X32247746Y50335540D01*
X32162329Y50207706D01*
X32103494Y50065664D01*
X32073500Y49914873D01*
X32073500Y49761127D01*
X32103494Y49610336D01*
X32162329Y49468294D01*
X32247746Y49340460D01*
X32356460Y49231746D01*
X32484294Y49146329D01*
X32626336Y49087494D01*
X32777127Y49057500D01*
X32930873Y49057500D01*
X33081664Y49087494D01*
X33223706Y49146329D01*
X33351540Y49231746D01*
X33460254Y49340460D01*
X33545671Y49468294D01*
X33604506Y49610336D01*
X33634500Y49761127D01*
X33634500Y49914873D01*
X33604506Y50065664D01*
X33545671Y50207706D01*
X33460254Y50335540D01*
X33351540Y50444254D01*
X33223706Y50529671D01*
X33187905Y50544500D01*
X36617734Y50544500D01*
X36445357Y50473099D01*
X36080689Y50229435D01*
X35770565Y49919311D01*
X35526901Y49554643D01*
X35359063Y49149446D01*
X35273500Y48719291D01*
X35273500Y48280709D01*
X35359063Y47850554D01*
X35526901Y47445357D01*
X35770565Y47080689D01*
X36080689Y46770565D01*
X36445357Y46526901D01*
X36850554Y46359063D01*
X37280709Y46273500D01*
X37719291Y46273500D01*
X38149446Y46359063D01*
X38554643Y46526901D01*
X38919311Y46770565D01*
X39229435Y47080689D01*
X39473099Y47445357D01*
X39544500Y47617734D01*
X39544500Y42361605D01*
X39424085Y42541818D01*
X39141818Y42824085D01*
X38809908Y43045861D01*
X38441108Y43198622D01*
X38049593Y43276500D01*
X37650407Y43276500D01*
X37258892Y43198622D01*
X36890092Y43045861D01*
X36558182Y42824085D01*
X36275915Y42541818D01*
X36054139Y42209908D01*
X35901378Y41841108D01*
X35823500Y41449593D01*
X35823500Y41050407D01*
X35901378Y40658892D01*
X36054139Y40290092D01*
X36275915Y39958182D01*
X36558182Y39675915D01*
X36890092Y39454139D01*
X37258892Y39301378D01*
X37650407Y39223500D01*
X38049593Y39223500D01*
X38441108Y39301378D01*
X38809908Y39454139D01*
X39141818Y39675915D01*
X39424085Y39958182D01*
X39544500Y40138395D01*
X39544501Y12771402D01*
X39291818Y13024085D01*
X38959908Y13245861D01*
X38591108Y13398622D01*
X38199593Y13476500D01*
X37800407Y13476500D01*
X37408892Y13398622D01*
X37040092Y13245861D01*
X36708182Y13024085D01*
X36425915Y12741818D01*
X36204139Y12409908D01*
X36051378Y12041108D01*
X35973500Y11649593D01*
X35973500Y11250407D01*
X36051378Y10858892D01*
X36204139Y10490092D01*
X36425915Y10158182D01*
X36708182Y9875915D01*
X37040092Y9654139D01*
X37408892Y9501378D01*
X37800407Y9423500D01*
X38199593Y9423500D01*
X38591108Y9501378D01*
X38959908Y9654139D01*
X39291818Y9875915D01*
X39544501Y10128598D01*
X39544501Y3382263D01*
X39473099Y3554643D01*
X39229435Y3919311D01*
X38919311Y4229435D01*
X38554643Y4473099D01*
X38149446Y4640937D01*
X37719291Y4726500D01*
X37280709Y4726500D01*
X36850554Y4640937D01*
X36445357Y4473099D01*
X36080689Y4229435D01*
X35770565Y3919311D01*
X35526901Y3554643D01*
X35359063Y3149446D01*
X35273500Y2719291D01*
X35273500Y2280709D01*
X35359063Y1850554D01*
X35526901Y1445357D01*
X35770565Y1080689D01*
X36080689Y770565D01*
X36445357Y526901D01*
X36617734Y455500D01*
X3382266Y455500D01*
X3554643Y526901D01*
X3919311Y770565D01*
X4229435Y1080689D01*
X4473099Y1445357D01*
X4640937Y1850554D01*
X4726500Y2280709D01*
X4726500Y2719291D01*
X4640937Y3149446D01*
X4473099Y3554643D01*
X4229435Y3919311D01*
X3919311Y4229435D01*
X3554643Y4473099D01*
X3149446Y4640937D01*
X2719291Y4726500D01*
X2280709Y4726500D01*
X1850554Y4640937D01*
X1445357Y4473099D01*
X1080689Y4229435D01*
X770565Y3919311D01*
X526901Y3554643D01*
X455500Y3382266D01*
X455500Y6478482D01*
X6315500Y6478482D01*
X6315500Y6221518D01*
X6365631Y5969491D01*
X6463967Y5732088D01*
X6606729Y5518430D01*
X6788430Y5336729D01*
X7002088Y5193967D01*
X7239491Y5095631D01*
X7491518Y5045500D01*
X7748482Y5045500D01*
X8000509Y5095631D01*
X8237912Y5193967D01*
X8451570Y5336729D01*
X8633271Y5518430D01*
X8776033Y5732088D01*
X8874369Y5969491D01*
X8924500Y6221518D01*
X8924500Y6478482D01*
X9815500Y6478482D01*
X9815500Y6221518D01*
X9865631Y5969491D01*
X9963967Y5732088D01*
X10106729Y5518430D01*
X10288430Y5336729D01*
X10502088Y5193967D01*
X10739491Y5095631D01*
X10991518Y5045500D01*
X11248482Y5045500D01*
X11500509Y5095631D01*
X11737912Y5193967D01*
X11951570Y5336729D01*
X12133271Y5518430D01*
X12276033Y5732088D01*
X12374369Y5969491D01*
X12424500Y6221518D01*
X12424500Y6478482D01*
X12374369Y6730509D01*
X12276033Y6967912D01*
X12133271Y7181570D01*
X11951570Y7363271D01*
X11737912Y7506033D01*
X11500509Y7604369D01*
X11248482Y7654500D01*
X10991518Y7654500D01*
X10739491Y7604369D01*
X10502088Y7506033D01*
X10288430Y7363271D01*
X10106729Y7181570D01*
X9963967Y6967912D01*
X9865631Y6730509D01*
X9815500Y6478482D01*
X8924500Y6478482D01*
X8874369Y6730509D01*
X8776033Y6967912D01*
X8633271Y7181570D01*
X8451570Y7363271D01*
X8237912Y7506033D01*
X8000509Y7604369D01*
X7748482Y7654500D01*
X7491518Y7654500D01*
X7239491Y7604369D01*
X7002088Y7506033D01*
X6788430Y7363271D01*
X6606729Y7181570D01*
X6463967Y6967912D01*
X6365631Y6730509D01*
X6315500Y6478482D01*
X455500Y6478482D01*
X455500Y10128597D01*
X708182Y9875915D01*
X1040092Y9654139D01*
X1408892Y9501378D01*
X1800407Y9423500D01*
X2199593Y9423500D01*
X2591108Y9501378D01*
X2959908Y9654139D01*
X3291818Y9875915D01*
X3574085Y10158182D01*
X3795861Y10490092D01*
X3900245Y10742099D01*
X5985500Y10742099D01*
X5985500Y10617901D01*
X6009729Y10496090D01*
X6057258Y10381346D01*
X6126258Y10278080D01*
X6214080Y10190258D01*
X6317346Y10121258D01*
X6432090Y10073729D01*
X6553901Y10049500D01*
X6678099Y10049500D01*
X6799910Y10073729D01*
X6914654Y10121258D01*
X6991343Y10172500D01*
X7353075Y10172500D01*
X7378000Y10170045D01*
X7402925Y10172500D01*
X7477487Y10179844D01*
X7573151Y10208863D01*
X7661316Y10255988D01*
X7738593Y10319407D01*
X7754487Y10338774D01*
X7961221Y10545509D01*
X7980593Y10561407D01*
X8044012Y10638684D01*
X8091137Y10726849D01*
X8120156Y10822513D01*
X8127500Y10897075D01*
X8129955Y10922000D01*
X8127500Y10946925D01*
X8127500Y14013787D01*
X8221449Y14107736D01*
X8311910Y14125729D01*
X8426654Y14173258D01*
X8529920Y14242258D01*
X8617742Y14330080D01*
X8686742Y14433346D01*
X8734271Y14548090D01*
X8758500Y14669901D01*
X8758500Y14794099D01*
X8734271Y14915910D01*
X8686742Y15030654D01*
X8617742Y15133920D01*
X8529920Y15221742D01*
X8426654Y15290742D01*
X8311910Y15338271D01*
X8190099Y15362500D01*
X8065901Y15362500D01*
X7944090Y15338271D01*
X7829346Y15290742D01*
X7726080Y15221742D01*
X7638258Y15133920D01*
X7569258Y15030654D01*
X7521729Y14915910D01*
X7503736Y14825449D01*
X7278774Y14600487D01*
X7259407Y14584593D01*
X7195988Y14507316D01*
X7148863Y14419150D01*
X7136332Y14377841D01*
X7119844Y14323487D01*
X7110045Y14224000D01*
X7112500Y14199075D01*
X7112501Y11187500D01*
X6991343Y11187500D01*
X6914654Y11238742D01*
X6799910Y11286271D01*
X6678099Y11310500D01*
X6553901Y11310500D01*
X6432090Y11286271D01*
X6317346Y11238742D01*
X6214080Y11169742D01*
X6126258Y11081920D01*
X6057258Y10978654D01*
X6009729Y10863910D01*
X5985500Y10742099D01*
X3900245Y10742099D01*
X3948622Y10858892D01*
X4026500Y11250407D01*
X4026500Y11649593D01*
X3948622Y12041108D01*
X3795861Y12409908D01*
X3574085Y12741818D01*
X3291818Y13024085D01*
X2959908Y13245861D01*
X2591108Y13398622D01*
X2199593Y13476500D01*
X1800407Y13476500D01*
X1408892Y13398622D01*
X1040092Y13245861D01*
X708182Y13024085D01*
X455500Y12771403D01*
X455500Y20759886D01*
X549295Y20759886D01*
X610969Y20523927D01*
X717491Y20304533D01*
X864768Y20110136D01*
X1047140Y19948207D01*
X1257599Y19824969D01*
X1488056Y19745157D01*
X1582886Y19726295D01*
X1777500Y19806025D01*
X1777500Y20954500D01*
X1778500Y20954500D01*
X1778500Y19806025D01*
X1973114Y19726295D01*
X2067944Y19745157D01*
X2298401Y19824969D01*
X2508860Y19948207D01*
X2691232Y20110136D01*
X2838509Y20304533D01*
X2945031Y20523927D01*
X3006705Y20759886D01*
X2926975Y20954500D01*
X1778500Y20954500D01*
X1777500Y20954500D01*
X629025Y20954500D01*
X549295Y20759886D01*
X455500Y20759886D01*
X455500Y20955000D01*
X3067881Y20955000D01*
X3091902Y20711114D01*
X3163041Y20476600D01*
X3278564Y20260471D01*
X3434032Y20071032D01*
X3623471Y19915564D01*
X3839600Y19800041D01*
X4074114Y19728902D01*
X4256889Y19710900D01*
X4379111Y19710900D01*
X4561886Y19728902D01*
X4796400Y19800041D01*
X5012529Y19915564D01*
X5201968Y20071032D01*
X5357436Y20260471D01*
X5472959Y20476600D01*
X5544098Y20711114D01*
X5568119Y20955000D01*
X5544098Y21198886D01*
X5472959Y21433400D01*
X5357436Y21649529D01*
X5201968Y21838968D01*
X5012529Y21994436D01*
X4796400Y22109959D01*
X4561886Y22181098D01*
X4379111Y22199100D01*
X4256889Y22199100D01*
X4074114Y22181098D01*
X3839600Y22109959D01*
X3623471Y21994436D01*
X3434032Y21838968D01*
X3278564Y21649529D01*
X3163041Y21433400D01*
X3091902Y21198886D01*
X3067881Y20955000D01*
X455500Y20955000D01*
X455500Y21150114D01*
X549295Y21150114D01*
X629025Y20955500D01*
X1777500Y20955500D01*
X1777500Y22103975D01*
X1778500Y22103975D01*
X1778500Y20955500D01*
X2926975Y20955500D01*
X3006705Y21150114D01*
X2945031Y21386073D01*
X2838509Y21605467D01*
X2691232Y21799864D01*
X2508860Y21961793D01*
X2298401Y22085031D01*
X2067944Y22164843D01*
X1973114Y22183705D01*
X1778500Y22103975D01*
X1777500Y22103975D01*
X1582886Y22183705D01*
X1488056Y22164843D01*
X1257599Y22085031D01*
X1047140Y21961793D01*
X864768Y21799864D01*
X717491Y21605467D01*
X610969Y21386073D01*
X549295Y21150114D01*
X455500Y21150114D01*
X455500Y23495000D01*
X527881Y23495000D01*
X551902Y23251114D01*
X623041Y23016600D01*
X738564Y22800471D01*
X894032Y22611032D01*
X1083471Y22455564D01*
X1299600Y22340041D01*
X1534114Y22268902D01*
X1716889Y22250900D01*
X1839111Y22250900D01*
X2021886Y22268902D01*
X2256400Y22340041D01*
X2472529Y22455564D01*
X2661968Y22611032D01*
X2817436Y22800471D01*
X2932959Y23016600D01*
X3004098Y23251114D01*
X3028119Y23495000D01*
X3004098Y23738886D01*
X2942537Y23941824D01*
X3283612Y24282899D01*
X3355190Y24282899D01*
X3278564Y24189529D01*
X3163041Y23973400D01*
X3091902Y23738886D01*
X3067881Y23495000D01*
X3091902Y23251114D01*
X3163041Y23016600D01*
X3278564Y22800471D01*
X3434032Y22611032D01*
X3623471Y22455564D01*
X3839600Y22340041D01*
X4074114Y22268902D01*
X4256889Y22250900D01*
X4379111Y22250900D01*
X4561886Y22268902D01*
X4764824Y22330463D01*
X5846513Y21248774D01*
X5862407Y21229407D01*
X5939684Y21165988D01*
X6027849Y21118863D01*
X6123513Y21089844D01*
X6223000Y21080045D01*
X6247925Y21082500D01*
X9627075Y21082500D01*
X9652000Y21080045D01*
X9676925Y21082500D01*
X9751487Y21089844D01*
X9847151Y21118863D01*
X9935316Y21165988D01*
X10012593Y21229407D01*
X10028487Y21248774D01*
X10643226Y21863513D01*
X10662593Y21879407D01*
X10726012Y21956684D01*
X10773137Y22044849D01*
X10802156Y22140513D01*
X10806241Y22181989D01*
X10811955Y22240000D01*
X10809500Y22264925D01*
X10809500Y22342657D01*
X10860742Y22419346D01*
X10908271Y22534090D01*
X10932500Y22655901D01*
X10932500Y22780099D01*
X10908271Y22901910D01*
X10860742Y23016654D01*
X10809500Y23093343D01*
X10809500Y24666106D01*
X10845742Y24720346D01*
X10893271Y24835090D01*
X10917500Y24956901D01*
X10917500Y25081099D01*
X10893271Y25202910D01*
X10845742Y25317654D01*
X10776742Y25420920D01*
X10688920Y25508742D01*
X10585654Y25577742D01*
X10470910Y25625271D01*
X10349099Y25649500D01*
X10224901Y25649500D01*
X10103090Y25625271D01*
X9988346Y25577742D01*
X9885080Y25508742D01*
X9842500Y25466162D01*
X9799920Y25508742D01*
X9696654Y25577742D01*
X9581910Y25625271D01*
X9460099Y25649500D01*
X9335901Y25649500D01*
X9214090Y25625271D01*
X9099346Y25577742D01*
X8996080Y25508742D01*
X8908258Y25420920D01*
X8839258Y25317654D01*
X8791729Y25202910D01*
X8767500Y25081099D01*
X8767500Y24956901D01*
X8791729Y24835090D01*
X8839258Y24720346D01*
X8890500Y24643656D01*
X8890501Y24340214D01*
X8680852Y24130565D01*
X8650654Y24150742D01*
X8535910Y24198271D01*
X8414099Y24222500D01*
X8289901Y24222500D01*
X8168090Y24198271D01*
X8053346Y24150742D01*
X7950080Y24081742D01*
X7862258Y23993920D01*
X7793258Y23890654D01*
X7745729Y23775910D01*
X7721500Y23654099D01*
X7721500Y23529901D01*
X7745729Y23408090D01*
X7793258Y23293346D01*
X7862258Y23190080D01*
X7938838Y23113500D01*
X7068213Y23113500D01*
X6603500Y23578213D01*
X6603500Y24359075D01*
X6605955Y24384000D01*
X6596156Y24483487D01*
X6567137Y24579152D01*
X6549004Y24613075D01*
X6520012Y24667316D01*
X6456593Y24744593D01*
X6437226Y24760487D01*
X5512096Y25685617D01*
X5544098Y25791114D01*
X5568119Y26035000D01*
X5544098Y26278886D01*
X5472959Y26513400D01*
X5357436Y26729529D01*
X5201968Y26918968D01*
X5012529Y27074436D01*
X4796400Y27189959D01*
X4561886Y27261098D01*
X4379111Y27279100D01*
X4256889Y27279100D01*
X4074114Y27261098D01*
X3839600Y27189959D01*
X3623471Y27074436D01*
X3434032Y26918968D01*
X3278564Y26729529D01*
X3163041Y26513400D01*
X3091902Y26278886D01*
X3067881Y26035000D01*
X3091902Y25791114D01*
X3163041Y25556600D01*
X3278564Y25340471D01*
X3313502Y25297899D01*
X3098324Y25297899D01*
X3073399Y25300354D01*
X3048474Y25297899D01*
X2973912Y25290555D01*
X2878248Y25261536D01*
X2790083Y25214411D01*
X2712806Y25150992D01*
X2696912Y25131625D01*
X2224824Y24659537D01*
X2021886Y24721098D01*
X1839111Y24739100D01*
X1716889Y24739100D01*
X1534114Y24721098D01*
X1299600Y24649959D01*
X1083471Y24534436D01*
X894032Y24378968D01*
X738564Y24189529D01*
X623041Y23973400D01*
X551902Y23738886D01*
X527881Y23495000D01*
X455500Y23495000D01*
X455500Y26035000D01*
X527881Y26035000D01*
X551902Y25791114D01*
X623041Y25556600D01*
X738564Y25340471D01*
X894032Y25151032D01*
X1083471Y24995564D01*
X1299600Y24880041D01*
X1534114Y24808902D01*
X1716889Y24790900D01*
X1839111Y24790900D01*
X2021886Y24808902D01*
X2256400Y24880041D01*
X2472529Y24995564D01*
X2661968Y25151032D01*
X2817436Y25340471D01*
X2932959Y25556600D01*
X3004098Y25791114D01*
X3028119Y26035000D01*
X3004098Y26278886D01*
X2932959Y26513400D01*
X2817436Y26729529D01*
X2661968Y26918968D01*
X2472529Y27074436D01*
X2256400Y27189959D01*
X2021886Y27261098D01*
X1839111Y27279100D01*
X1716889Y27279100D01*
X1534114Y27261098D01*
X1299600Y27189959D01*
X1083471Y27074436D01*
X894032Y26918968D01*
X738564Y26729529D01*
X623041Y26513400D01*
X551902Y26278886D01*
X527881Y26035000D01*
X455500Y26035000D01*
X455500Y40138395D01*
X575915Y39958182D01*
X858182Y39675915D01*
X1190092Y39454139D01*
X1558892Y39301378D01*
X1950407Y39223500D01*
X2349593Y39223500D01*
X2741108Y39301378D01*
X3109908Y39454139D01*
X3441818Y39675915D01*
X3724085Y39958182D01*
X3945861Y40290092D01*
X4098622Y40658892D01*
X4176500Y41050407D01*
X4176500Y41449593D01*
X4098622Y41841108D01*
X4068430Y41914000D01*
X10986000Y41914000D01*
X10986000Y17268000D01*
X10993311Y17193769D01*
X11012341Y17098098D01*
X11069155Y16960935D01*
X11123348Y16879829D01*
X11228329Y16774848D01*
X11309435Y16720655D01*
X11446598Y16663841D01*
X11542269Y16644811D01*
X11616500Y16637500D01*
X13081500Y16637500D01*
X13081500Y16541162D01*
X13078431Y16510000D01*
X13081500Y16478838D01*
X13081500Y7270162D01*
X13078431Y7239000D01*
X13081500Y7207838D01*
X13081500Y6854000D01*
X13088811Y6779769D01*
X13107841Y6684098D01*
X13164655Y6546935D01*
X13218848Y6465829D01*
X13300500Y6384177D01*
X13300500Y6221518D01*
X13350631Y5969491D01*
X13448967Y5732088D01*
X13591729Y5518430D01*
X13773430Y5336729D01*
X13987088Y5193967D01*
X14224491Y5095631D01*
X14476518Y5045500D01*
X14733482Y5045500D01*
X14985509Y5095631D01*
X15222912Y5193967D01*
X15436570Y5336729D01*
X15618271Y5518430D01*
X15761033Y5732088D01*
X15859369Y5969491D01*
X15909500Y6221518D01*
X15909500Y6384177D01*
X15991152Y6465829D01*
X15999606Y6478482D01*
X16800500Y6478482D01*
X16800500Y6221518D01*
X16850631Y5969491D01*
X16948967Y5732088D01*
X17091729Y5518430D01*
X17273430Y5336729D01*
X17487088Y5193967D01*
X17724491Y5095631D01*
X17976518Y5045500D01*
X18233482Y5045500D01*
X18485509Y5095631D01*
X18722912Y5193967D01*
X18936570Y5336729D01*
X19118271Y5518430D01*
X19261033Y5732088D01*
X19359369Y5969491D01*
X19409500Y6221518D01*
X19409500Y6478482D01*
X19359369Y6730509D01*
X19261033Y6967912D01*
X19118271Y7181570D01*
X18936570Y7363271D01*
X18722912Y7506033D01*
X18485509Y7604369D01*
X18233482Y7654500D01*
X17976518Y7654500D01*
X17724491Y7604369D01*
X17487088Y7506033D01*
X17273430Y7363271D01*
X17091729Y7181570D01*
X16948967Y6967912D01*
X16850631Y6730509D01*
X16800500Y6478482D01*
X15999606Y6478482D01*
X16045345Y6546935D01*
X16102159Y6684098D01*
X16121189Y6779769D01*
X16128500Y6854000D01*
X16128500Y7207830D01*
X16131570Y7239000D01*
X16128500Y7270169D01*
X16128500Y16637500D01*
X23495500Y16637500D01*
X23495500Y14982000D01*
X23502811Y14907769D01*
X23521841Y14812098D01*
X23578655Y14674935D01*
X23632848Y14593829D01*
X23737829Y14488848D01*
X23818935Y14434655D01*
X23956098Y14377841D01*
X24051769Y14358811D01*
X24126000Y14351500D01*
X26166000Y14351500D01*
X26240231Y14358811D01*
X26335902Y14377841D01*
X26473065Y14434655D01*
X26554171Y14488848D01*
X26659152Y14593829D01*
X26713345Y14674935D01*
X26770159Y14812098D01*
X26789189Y14907769D01*
X26796500Y14982000D01*
X26796500Y18292000D01*
X26789189Y18366231D01*
X26770159Y18461902D01*
X26713345Y18599065D01*
X26659152Y18680171D01*
X26554171Y18785152D01*
X26473065Y18839345D01*
X26335902Y18896159D01*
X26240231Y18915189D01*
X26166000Y18922500D01*
X13334500Y18922500D01*
X13334500Y27772099D01*
X14482500Y27772099D01*
X14482500Y27647901D01*
X14506729Y27526090D01*
X14554258Y27411346D01*
X14605501Y27334655D01*
X14605500Y24281925D01*
X14603045Y24257000D01*
X14612667Y24159315D01*
X14612844Y24157514D01*
X14641863Y24061850D01*
X14688988Y23973684D01*
X14752407Y23896407D01*
X14771774Y23880513D01*
X16409301Y22242985D01*
X16425190Y22223624D01*
X16502467Y22160205D01*
X16590632Y22113080D01*
X16646790Y22096045D01*
X16686295Y22084061D01*
X16785782Y22074262D01*
X16810707Y22076717D01*
X16918440Y22076717D01*
X16995129Y22025475D01*
X17109873Y21977946D01*
X17231684Y21953717D01*
X17355882Y21953717D01*
X17477693Y21977946D01*
X17592437Y22025475D01*
X17695703Y22094475D01*
X17783525Y22182297D01*
X17852525Y22285563D01*
X17900054Y22400307D01*
X17924283Y22522118D01*
X17924283Y22646316D01*
X17900054Y22768127D01*
X17852525Y22882871D01*
X17783525Y22986137D01*
X17695703Y23073959D01*
X17592437Y23142959D01*
X17477693Y23190488D01*
X17355882Y23214717D01*
X17231684Y23214717D01*
X17109873Y23190488D01*
X16995129Y23142959D01*
X16964932Y23122782D01*
X16019644Y24068070D01*
X16046654Y24079258D01*
X16149920Y24148258D01*
X16237742Y24236080D01*
X16306742Y24339346D01*
X16350960Y24446099D01*
X21340500Y24446099D01*
X21340500Y24321901D01*
X21364729Y24200090D01*
X21412258Y24085346D01*
X21467280Y24003000D01*
X21412258Y23920654D01*
X21364729Y23805910D01*
X21340500Y23684099D01*
X21340500Y23559901D01*
X21364729Y23438090D01*
X21412258Y23323346D01*
X21467280Y23241000D01*
X21412258Y23158654D01*
X21364729Y23043910D01*
X21340500Y22922099D01*
X21340500Y22797901D01*
X21364729Y22676090D01*
X21412258Y22561346D01*
X21481258Y22458080D01*
X21569080Y22370258D01*
X21672346Y22301258D01*
X21787090Y22253729D01*
X21908901Y22229500D01*
X22033099Y22229500D01*
X22154910Y22253729D01*
X22269654Y22301258D01*
X22346343Y22352500D01*
X23881657Y22352500D01*
X23958346Y22301258D01*
X24073090Y22253729D01*
X24194901Y22229500D01*
X24319099Y22229500D01*
X24440910Y22253729D01*
X24555654Y22301258D01*
X24658920Y22370258D01*
X24746742Y22458080D01*
X24815742Y22561346D01*
X24863271Y22676090D01*
X24887500Y22797901D01*
X24887500Y22922099D01*
X24863271Y23043910D01*
X24815742Y23158654D01*
X24760720Y23241000D01*
X24815742Y23323346D01*
X24863271Y23438090D01*
X24887500Y23559901D01*
X24887500Y23684099D01*
X24863271Y23805910D01*
X24815742Y23920654D01*
X24760720Y24003000D01*
X24815742Y24085346D01*
X24863271Y24200090D01*
X24887500Y24321901D01*
X24887500Y24446099D01*
X24863271Y24567910D01*
X24815742Y24682654D01*
X24746742Y24785920D01*
X24658920Y24873742D01*
X24555654Y24942742D01*
X24440910Y24990271D01*
X24319099Y25014500D01*
X24194901Y25014500D01*
X24073090Y24990271D01*
X23958346Y24942742D01*
X23881657Y24891500D01*
X22346343Y24891500D01*
X22269654Y24942742D01*
X22154910Y24990271D01*
X22033099Y25014500D01*
X21908901Y25014500D01*
X21787090Y24990271D01*
X21672346Y24942742D01*
X21569080Y24873742D01*
X21481258Y24785920D01*
X21412258Y24682654D01*
X21364729Y24567910D01*
X21340500Y24446099D01*
X16350960Y24446099D01*
X16354271Y24454090D01*
X16378500Y24575901D01*
X16378500Y24700099D01*
X16354271Y24821910D01*
X16306742Y24936654D01*
X16255500Y25013343D01*
X16255500Y28072657D01*
X16306742Y28149346D01*
X16354271Y28264090D01*
X16378500Y28385901D01*
X16378500Y28510099D01*
X16354271Y28631910D01*
X16306742Y28746654D01*
X16237742Y28849920D01*
X16149920Y28937742D01*
X16046654Y29006742D01*
X15931910Y29054271D01*
X15810099Y29078500D01*
X15685901Y29078500D01*
X15564090Y29054271D01*
X15449346Y29006742D01*
X15346080Y28937742D01*
X15258258Y28849920D01*
X15189258Y28746654D01*
X15141729Y28631910D01*
X15117500Y28510099D01*
X15117500Y28385901D01*
X15126531Y28340500D01*
X15050901Y28340500D01*
X14929090Y28316271D01*
X14814346Y28268742D01*
X14711080Y28199742D01*
X14623258Y28111920D01*
X14554258Y28008654D01*
X14506729Y27893910D01*
X14482500Y27772099D01*
X13334500Y27772099D01*
X13334500Y30607500D01*
X28198000Y30607500D01*
X28272231Y30614811D01*
X28367902Y30633841D01*
X28505065Y30690655D01*
X28586171Y30744848D01*
X28691152Y30849829D01*
X28745345Y30930935D01*
X28802159Y31068098D01*
X28821189Y31163769D01*
X28828500Y31238000D01*
X28828500Y35310000D01*
X28821189Y35384231D01*
X28802159Y35479902D01*
X28745345Y35617065D01*
X28691152Y35698171D01*
X28586171Y35803152D01*
X28505065Y35857345D01*
X28367902Y35914159D01*
X28272231Y35933189D01*
X28198000Y35940500D01*
X27174000Y35940500D01*
X27099769Y35933189D01*
X27004098Y35914159D01*
X26866935Y35857345D01*
X26785829Y35803152D01*
X26680848Y35698171D01*
X26626655Y35617065D01*
X26569841Y35479902D01*
X26550811Y35384231D01*
X26543500Y35310000D01*
X26543500Y32892500D01*
X13334500Y32892500D01*
X13334500Y41914000D01*
X13327189Y41988231D01*
X13308159Y42083902D01*
X13251345Y42221065D01*
X13197152Y42302171D01*
X13092171Y42407152D01*
X13011065Y42461345D01*
X12873902Y42518159D01*
X12778231Y42537189D01*
X12704000Y42544500D01*
X11616500Y42544500D01*
X11542269Y42537189D01*
X11446598Y42518159D01*
X11309435Y42461345D01*
X11228329Y42407152D01*
X11123348Y42302171D01*
X11069155Y42221065D01*
X11012341Y42083902D01*
X10993311Y41988231D01*
X10986000Y41914000D01*
X4068430Y41914000D01*
X3945861Y42209908D01*
X3724085Y42541818D01*
X3441818Y42824085D01*
X3109908Y43045861D01*
X2741108Y43198622D01*
X2349593Y43276500D01*
X1950407Y43276500D01*
X1558892Y43198622D01*
X1190092Y43045861D01*
X858182Y42824085D01*
X575915Y42541818D01*
X455500Y42361605D01*
X455500Y47617734D01*
X526901Y47445357D01*
X770565Y47080689D01*
X1080689Y46770565D01*
X1445357Y46526901D01*
X1850554Y46359063D01*
X2280709Y46273500D01*
X2719291Y46273500D01*
X3149446Y46359063D01*
X3554643Y46526901D01*
X3919311Y46770565D01*
X4229435Y47080689D01*
X4473099Y47445357D01*
X4624505Y47810886D01*
X10201295Y47810886D01*
X10220157Y47716056D01*
X10299969Y47485599D01*
X10423207Y47275140D01*
X10585136Y47092768D01*
X10779533Y46945491D01*
X10998927Y46838969D01*
X11234886Y46777295D01*
X11429500Y46857025D01*
X11429500Y48005500D01*
X11430500Y48005500D01*
X11430500Y46857025D01*
X11625114Y46777295D01*
X11861073Y46838969D01*
X12080467Y46945491D01*
X12274864Y47092768D01*
X12436793Y47275140D01*
X12560031Y47485599D01*
X12639843Y47716056D01*
X12658705Y47810886D01*
X12578975Y48005500D01*
X11430500Y48005500D01*
X11429500Y48005500D01*
X10281025Y48005500D01*
X10201295Y47810886D01*
X4624505Y47810886D01*
X4640937Y47850554D01*
X4671856Y48006000D01*
X12719881Y48006000D01*
X12743902Y47762114D01*
X12815041Y47527600D01*
X12930564Y47311471D01*
X13086032Y47122032D01*
X13275471Y46966564D01*
X13491600Y46851041D01*
X13726114Y46779902D01*
X13908889Y46761900D01*
X14031111Y46761900D01*
X14213886Y46779902D01*
X14448400Y46851041D01*
X14664529Y46966564D01*
X14853968Y47122032D01*
X15009436Y47311471D01*
X15124959Y47527600D01*
X15196098Y47762114D01*
X15220119Y48006000D01*
X15259881Y48006000D01*
X15283902Y47762114D01*
X15304000Y47695860D01*
X15304000Y37334000D01*
X15311311Y37259769D01*
X15330341Y37164098D01*
X15387155Y37026935D01*
X15441348Y36945829D01*
X15546329Y36840848D01*
X15627435Y36786655D01*
X15764598Y36729841D01*
X15860269Y36710811D01*
X15934500Y36703500D01*
X29337500Y36703500D01*
X29337500Y22348000D01*
X29344811Y22273769D01*
X29363841Y22178098D01*
X29420655Y22040935D01*
X29474848Y21959829D01*
X29579829Y21854848D01*
X29660935Y21800655D01*
X29798098Y21743841D01*
X29893769Y21724811D01*
X29968000Y21717500D01*
X30992000Y21717500D01*
X31066231Y21724811D01*
X31161902Y21743841D01*
X31299065Y21800655D01*
X31380171Y21854848D01*
X31485152Y21959829D01*
X31539345Y22040935D01*
X31596159Y22178098D01*
X31615189Y22273769D01*
X31622500Y22348000D01*
X31622500Y27230194D01*
X36470500Y27230194D01*
X36470500Y26987806D01*
X36517787Y26750076D01*
X36610545Y26526140D01*
X36745208Y26324602D01*
X36916602Y26153208D01*
X37118140Y26018545D01*
X37342076Y25925787D01*
X37579806Y25878500D01*
X37822194Y25878500D01*
X38059924Y25925787D01*
X38283860Y26018545D01*
X38485398Y26153208D01*
X38656792Y26324602D01*
X38791455Y26526140D01*
X38884213Y26750076D01*
X38931500Y26987806D01*
X38931500Y27230194D01*
X38884213Y27467924D01*
X38791455Y27691860D01*
X38656792Y27893398D01*
X38485398Y28064792D01*
X38283860Y28199455D01*
X38059924Y28292213D01*
X37822194Y28339500D01*
X37579806Y28339500D01*
X37342076Y28292213D01*
X37118140Y28199455D01*
X36916602Y28064792D01*
X36745208Y27893398D01*
X36610545Y27691860D01*
X36517787Y27467924D01*
X36470500Y27230194D01*
X31622500Y27230194D01*
X31622500Y28405571D01*
X34070500Y28405571D01*
X34070500Y28212429D01*
X34108180Y28022999D01*
X34182092Y27844559D01*
X34289396Y27683968D01*
X34425968Y27547396D01*
X34586559Y27440092D01*
X34764999Y27366180D01*
X34954429Y27328500D01*
X35147571Y27328500D01*
X35337001Y27366180D01*
X35515441Y27440092D01*
X35676032Y27547396D01*
X35812604Y27683968D01*
X35919908Y27844559D01*
X35993820Y28022999D01*
X36031500Y28212429D01*
X36031500Y28405571D01*
X35993820Y28595001D01*
X35919908Y28773441D01*
X35812604Y28934032D01*
X35676032Y29070604D01*
X35515441Y29177908D01*
X35337001Y29251820D01*
X35147571Y29289500D01*
X34954429Y29289500D01*
X34764999Y29251820D01*
X34586559Y29177908D01*
X34425968Y29070604D01*
X34289396Y28934032D01*
X34182092Y28773441D01*
X34108180Y28595001D01*
X34070500Y28405571D01*
X31622500Y28405571D01*
X31622500Y33255571D01*
X34070500Y33255571D01*
X34070500Y33062429D01*
X34108180Y32872999D01*
X34182092Y32694559D01*
X34289396Y32533968D01*
X34425968Y32397396D01*
X34586559Y32290092D01*
X34764999Y32216180D01*
X34954429Y32178500D01*
X35147571Y32178500D01*
X35337001Y32216180D01*
X35515441Y32290092D01*
X35676032Y32397396D01*
X35812604Y32533968D01*
X35919908Y32694559D01*
X35993820Y32872999D01*
X36031500Y33062429D01*
X36031500Y33255571D01*
X35993820Y33445001D01*
X35919908Y33623441D01*
X35812604Y33784032D01*
X35676032Y33920604D01*
X35515441Y34027908D01*
X35337001Y34101820D01*
X35147571Y34139500D01*
X34954429Y34139500D01*
X34764999Y34101820D01*
X34586559Y34027908D01*
X34425968Y33920604D01*
X34289396Y33784032D01*
X34182092Y33623441D01*
X34108180Y33445001D01*
X34070500Y33255571D01*
X31622500Y33255571D01*
X31622500Y34480194D01*
X36470500Y34480194D01*
X36470500Y34237806D01*
X36517787Y34000076D01*
X36610545Y33776140D01*
X36745208Y33574602D01*
X36916602Y33403208D01*
X37118140Y33268545D01*
X37342076Y33175787D01*
X37579806Y33128500D01*
X37822194Y33128500D01*
X38059924Y33175787D01*
X38283860Y33268545D01*
X38485398Y33403208D01*
X38656792Y33574602D01*
X38791455Y33776140D01*
X38884213Y34000076D01*
X38931500Y34237806D01*
X38931500Y34480194D01*
X38884213Y34717924D01*
X38791455Y34941860D01*
X38656792Y35143398D01*
X38485398Y35314792D01*
X38283860Y35449455D01*
X38059924Y35542213D01*
X37822194Y35589500D01*
X37579806Y35589500D01*
X37342076Y35542213D01*
X37118140Y35449455D01*
X36916602Y35314792D01*
X36745208Y35143398D01*
X36610545Y34941860D01*
X36517787Y34717924D01*
X36470500Y34480194D01*
X31622500Y34480194D01*
X31622500Y38358000D01*
X31615189Y38432231D01*
X31596159Y38527902D01*
X31539345Y38665065D01*
X31485152Y38746171D01*
X31380171Y38851152D01*
X31299065Y38905345D01*
X31161902Y38962159D01*
X31066231Y38981189D01*
X30992000Y38988500D01*
X17716000Y38988500D01*
X17716000Y47695860D01*
X17736098Y47762114D01*
X17760119Y48006000D01*
X17799881Y48006000D01*
X17823902Y47762114D01*
X17895041Y47527600D01*
X18010564Y47311471D01*
X18166032Y47122032D01*
X18355471Y46966564D01*
X18571600Y46851041D01*
X18806114Y46779902D01*
X18988889Y46761900D01*
X19111111Y46761900D01*
X19293886Y46779902D01*
X19528400Y46851041D01*
X19744529Y46966564D01*
X19933968Y47122032D01*
X20089436Y47311471D01*
X20204959Y47527600D01*
X20276098Y47762114D01*
X20300119Y48006000D01*
X20339881Y48006000D01*
X20363902Y47762114D01*
X20435041Y47527600D01*
X20550564Y47311471D01*
X20706032Y47122032D01*
X20895471Y46966564D01*
X21111600Y46851041D01*
X21346114Y46779902D01*
X21528889Y46761900D01*
X21651111Y46761900D01*
X21833886Y46779902D01*
X22068400Y46851041D01*
X22284529Y46966564D01*
X22473968Y47122032D01*
X22629436Y47311471D01*
X22744959Y47527600D01*
X22816098Y47762114D01*
X22840119Y48006000D01*
X22879881Y48006000D01*
X22903902Y47762114D01*
X22975041Y47527600D01*
X23090564Y47311471D01*
X23246032Y47122032D01*
X23435471Y46966564D01*
X23651600Y46851041D01*
X23886114Y46779902D01*
X24068889Y46761900D01*
X24191111Y46761900D01*
X24373886Y46779902D01*
X24608400Y46851041D01*
X24824529Y46966564D01*
X25013968Y47122032D01*
X25169436Y47311471D01*
X25284959Y47527600D01*
X25356098Y47762114D01*
X25380119Y48006000D01*
X25356098Y48249886D01*
X25284959Y48484400D01*
X25169436Y48700529D01*
X25013968Y48889968D01*
X24824529Y49045436D01*
X24608400Y49160959D01*
X24373886Y49232098D01*
X24191111Y49250100D01*
X24068889Y49250100D01*
X23886114Y49232098D01*
X23651600Y49160959D01*
X23435471Y49045436D01*
X23246032Y48889968D01*
X23090564Y48700529D01*
X22975041Y48484400D01*
X22903902Y48249886D01*
X22879881Y48006000D01*
X22840119Y48006000D01*
X22816098Y48249886D01*
X22744959Y48484400D01*
X22629436Y48700529D01*
X22473968Y48889968D01*
X22284529Y49045436D01*
X22068400Y49160959D01*
X21833886Y49232098D01*
X21651111Y49250100D01*
X21528889Y49250100D01*
X21346114Y49232098D01*
X21111600Y49160959D01*
X20895471Y49045436D01*
X20706032Y48889968D01*
X20550564Y48700529D01*
X20435041Y48484400D01*
X20363902Y48249886D01*
X20339881Y48006000D01*
X20300119Y48006000D01*
X20276098Y48249886D01*
X20204959Y48484400D01*
X20089436Y48700529D01*
X19933968Y48889968D01*
X19744529Y49045436D01*
X19528400Y49160959D01*
X19293886Y49232098D01*
X19111111Y49250100D01*
X18988889Y49250100D01*
X18806114Y49232098D01*
X18571600Y49160959D01*
X18355471Y49045436D01*
X18166032Y48889968D01*
X18010564Y48700529D01*
X17895041Y48484400D01*
X17823902Y48249886D01*
X17799881Y48006000D01*
X17760119Y48006000D01*
X17736098Y48249886D01*
X17716000Y48316140D01*
X17716000Y48772000D01*
X17708689Y48846231D01*
X17689659Y48941902D01*
X17632845Y49079065D01*
X17578652Y49160171D01*
X17473671Y49265152D01*
X17392565Y49319345D01*
X17255402Y49376159D01*
X17159731Y49395189D01*
X17085500Y49402500D01*
X15934500Y49402500D01*
X15860269Y49395189D01*
X15764598Y49376159D01*
X15627435Y49319345D01*
X15546329Y49265152D01*
X15441348Y49160171D01*
X15387155Y49079065D01*
X15330341Y48941902D01*
X15311311Y48846231D01*
X15304000Y48772000D01*
X15304000Y48316140D01*
X15283902Y48249886D01*
X15259881Y48006000D01*
X15220119Y48006000D01*
X15196098Y48249886D01*
X15124959Y48484400D01*
X15009436Y48700529D01*
X14853968Y48889968D01*
X14664529Y49045436D01*
X14448400Y49160959D01*
X14213886Y49232098D01*
X14031111Y49250100D01*
X13908889Y49250100D01*
X13726114Y49232098D01*
X13491600Y49160959D01*
X13275471Y49045436D01*
X13086032Y48889968D01*
X12930564Y48700529D01*
X12815041Y48484400D01*
X12743902Y48249886D01*
X12719881Y48006000D01*
X4671856Y48006000D01*
X4710667Y48201114D01*
X10201295Y48201114D01*
X10281025Y48006500D01*
X11429500Y48006500D01*
X11429500Y49154975D01*
X11430500Y49154975D01*
X11430500Y48006500D01*
X12578975Y48006500D01*
X12658705Y48201114D01*
X12639843Y48295944D01*
X12560031Y48526401D01*
X12436793Y48736860D01*
X12274864Y48919232D01*
X12080467Y49066509D01*
X11861073Y49173031D01*
X11625114Y49234705D01*
X11430500Y49154975D01*
X11429500Y49154975D01*
X11234886Y49234705D01*
X10998927Y49173031D01*
X10779533Y49066509D01*
X10585136Y48919232D01*
X10423207Y48736860D01*
X10299969Y48526401D01*
X10220157Y48295944D01*
X10201295Y48201114D01*
X4710667Y48201114D01*
X4726500Y48280709D01*
X4726500Y48719291D01*
X4640937Y49149446D01*
X4473099Y49554643D01*
X4229435Y49919311D01*
X3919311Y50229435D01*
X3554643Y50473099D01*
X3382266Y50544500D01*
X30820095Y50544500D01*
X30784294Y50529671D01*
X30784294Y50529671D01*
G37*
X30784294Y50529671D02*
X30656460Y50444254D01*
X30547746Y50335540D01*
X30462329Y50207706D01*
X30403494Y50065664D01*
X30373500Y49914873D01*
X30373500Y49761127D01*
X30403494Y49610336D01*
X30462329Y49468294D01*
X30547746Y49340460D01*
X30656460Y49231746D01*
X30784294Y49146329D01*
X30926336Y49087494D01*
X31077127Y49057500D01*
X31230873Y49057500D01*
X31381664Y49087494D01*
X31523706Y49146329D01*
X31651540Y49231746D01*
X31760254Y49340460D01*
X31845671Y49468294D01*
X31904506Y49610336D01*
X31934500Y49761127D01*
X31934500Y49914873D01*
X31904506Y50065664D01*
X31845671Y50207706D01*
X31760254Y50335540D01*
X31651540Y50444254D01*
X31523706Y50529671D01*
X31487905Y50544500D01*
X32520095Y50544500D01*
X32484294Y50529671D01*
X32356460Y50444254D01*
X32247746Y50335540D01*
X32162329Y50207706D01*
X32103494Y50065664D01*
X32073500Y49914873D01*
X32073500Y49761127D01*
X32103494Y49610336D01*
X32162329Y49468294D01*
X32247746Y49340460D01*
X32356460Y49231746D01*
X32484294Y49146329D01*
X32626336Y49087494D01*
X32777127Y49057500D01*
X32930873Y49057500D01*
X33081664Y49087494D01*
X33223706Y49146329D01*
X33351540Y49231746D01*
X33460254Y49340460D01*
X33545671Y49468294D01*
X33604506Y49610336D01*
X33634500Y49761127D01*
X33634500Y49914873D01*
X33604506Y50065664D01*
X33545671Y50207706D01*
X33460254Y50335540D01*
X33351540Y50444254D01*
X33223706Y50529671D01*
X33187905Y50544500D01*
X36617734Y50544500D01*
X36445357Y50473099D01*
X36080689Y50229435D01*
X35770565Y49919311D01*
X35526901Y49554643D01*
X35359063Y49149446D01*
X35273500Y48719291D01*
X35273500Y48280709D01*
X35359063Y47850554D01*
X35526901Y47445357D01*
X35770565Y47080689D01*
X36080689Y46770565D01*
X36445357Y46526901D01*
X36850554Y46359063D01*
X37280709Y46273500D01*
X37719291Y46273500D01*
X38149446Y46359063D01*
X38554643Y46526901D01*
X38919311Y46770565D01*
X39229435Y47080689D01*
X39473099Y47445357D01*
X39544500Y47617734D01*
X39544500Y42361605D01*
X39424085Y42541818D01*
X39141818Y42824085D01*
X38809908Y43045861D01*
X38441108Y43198622D01*
X38049593Y43276500D01*
X37650407Y43276500D01*
X37258892Y43198622D01*
X36890092Y43045861D01*
X36558182Y42824085D01*
X36275915Y42541818D01*
X36054139Y42209908D01*
X35901378Y41841108D01*
X35823500Y41449593D01*
X35823500Y41050407D01*
X35901378Y40658892D01*
X36054139Y40290092D01*
X36275915Y39958182D01*
X36558182Y39675915D01*
X36890092Y39454139D01*
X37258892Y39301378D01*
X37650407Y39223500D01*
X38049593Y39223500D01*
X38441108Y39301378D01*
X38809908Y39454139D01*
X39141818Y39675915D01*
X39424085Y39958182D01*
X39544500Y40138395D01*
X39544501Y12771402D01*
X39291818Y13024085D01*
X38959908Y13245861D01*
X38591108Y13398622D01*
X38199593Y13476500D01*
X37800407Y13476500D01*
X37408892Y13398622D01*
X37040092Y13245861D01*
X36708182Y13024085D01*
X36425915Y12741818D01*
X36204139Y12409908D01*
X36051378Y12041108D01*
X35973500Y11649593D01*
X35973500Y11250407D01*
X36051378Y10858892D01*
X36204139Y10490092D01*
X36425915Y10158182D01*
X36708182Y9875915D01*
X37040092Y9654139D01*
X37408892Y9501378D01*
X37800407Y9423500D01*
X38199593Y9423500D01*
X38591108Y9501378D01*
X38959908Y9654139D01*
X39291818Y9875915D01*
X39544501Y10128598D01*
X39544501Y3382263D01*
X39473099Y3554643D01*
X39229435Y3919311D01*
X38919311Y4229435D01*
X38554643Y4473099D01*
X38149446Y4640937D01*
X37719291Y4726500D01*
X37280709Y4726500D01*
X36850554Y4640937D01*
X36445357Y4473099D01*
X36080689Y4229435D01*
X35770565Y3919311D01*
X35526901Y3554643D01*
X35359063Y3149446D01*
X35273500Y2719291D01*
X35273500Y2280709D01*
X35359063Y1850554D01*
X35526901Y1445357D01*
X35770565Y1080689D01*
X36080689Y770565D01*
X36445357Y526901D01*
X36617734Y455500D01*
X3382266Y455500D01*
X3554643Y526901D01*
X3919311Y770565D01*
X4229435Y1080689D01*
X4473099Y1445357D01*
X4640937Y1850554D01*
X4726500Y2280709D01*
X4726500Y2719291D01*
X4640937Y3149446D01*
X4473099Y3554643D01*
X4229435Y3919311D01*
X3919311Y4229435D01*
X3554643Y4473099D01*
X3149446Y4640937D01*
X2719291Y4726500D01*
X2280709Y4726500D01*
X1850554Y4640937D01*
X1445357Y4473099D01*
X1080689Y4229435D01*
X770565Y3919311D01*
X526901Y3554643D01*
X455500Y3382266D01*
X455500Y6478482D01*
X6315500Y6478482D01*
X6315500Y6221518D01*
X6365631Y5969491D01*
X6463967Y5732088D01*
X6606729Y5518430D01*
X6788430Y5336729D01*
X7002088Y5193967D01*
X7239491Y5095631D01*
X7491518Y5045500D01*
X7748482Y5045500D01*
X8000509Y5095631D01*
X8237912Y5193967D01*
X8451570Y5336729D01*
X8633271Y5518430D01*
X8776033Y5732088D01*
X8874369Y5969491D01*
X8924500Y6221518D01*
X8924500Y6478482D01*
X9815500Y6478482D01*
X9815500Y6221518D01*
X9865631Y5969491D01*
X9963967Y5732088D01*
X10106729Y5518430D01*
X10288430Y5336729D01*
X10502088Y5193967D01*
X10739491Y5095631D01*
X10991518Y5045500D01*
X11248482Y5045500D01*
X11500509Y5095631D01*
X11737912Y5193967D01*
X11951570Y5336729D01*
X12133271Y5518430D01*
X12276033Y5732088D01*
X12374369Y5969491D01*
X12424500Y6221518D01*
X12424500Y6478482D01*
X12374369Y6730509D01*
X12276033Y6967912D01*
X12133271Y7181570D01*
X11951570Y7363271D01*
X11737912Y7506033D01*
X11500509Y7604369D01*
X11248482Y7654500D01*
X10991518Y7654500D01*
X10739491Y7604369D01*
X10502088Y7506033D01*
X10288430Y7363271D01*
X10106729Y7181570D01*
X9963967Y6967912D01*
X9865631Y6730509D01*
X9815500Y6478482D01*
X8924500Y6478482D01*
X8874369Y6730509D01*
X8776033Y6967912D01*
X8633271Y7181570D01*
X8451570Y7363271D01*
X8237912Y7506033D01*
X8000509Y7604369D01*
X7748482Y7654500D01*
X7491518Y7654500D01*
X7239491Y7604369D01*
X7002088Y7506033D01*
X6788430Y7363271D01*
X6606729Y7181570D01*
X6463967Y6967912D01*
X6365631Y6730509D01*
X6315500Y6478482D01*
X455500Y6478482D01*
X455500Y10128597D01*
X708182Y9875915D01*
X1040092Y9654139D01*
X1408892Y9501378D01*
X1800407Y9423500D01*
X2199593Y9423500D01*
X2591108Y9501378D01*
X2959908Y9654139D01*
X3291818Y9875915D01*
X3574085Y10158182D01*
X3795861Y10490092D01*
X3900245Y10742099D01*
X5985500Y10742099D01*
X5985500Y10617901D01*
X6009729Y10496090D01*
X6057258Y10381346D01*
X6126258Y10278080D01*
X6214080Y10190258D01*
X6317346Y10121258D01*
X6432090Y10073729D01*
X6553901Y10049500D01*
X6678099Y10049500D01*
X6799910Y10073729D01*
X6914654Y10121258D01*
X6991343Y10172500D01*
X7353075Y10172500D01*
X7378000Y10170045D01*
X7402925Y10172500D01*
X7477487Y10179844D01*
X7573151Y10208863D01*
X7661316Y10255988D01*
X7738593Y10319407D01*
X7754487Y10338774D01*
X7961221Y10545509D01*
X7980593Y10561407D01*
X8044012Y10638684D01*
X8091137Y10726849D01*
X8120156Y10822513D01*
X8127500Y10897075D01*
X8129955Y10922000D01*
X8127500Y10946925D01*
X8127500Y14013787D01*
X8221449Y14107736D01*
X8311910Y14125729D01*
X8426654Y14173258D01*
X8529920Y14242258D01*
X8617742Y14330080D01*
X8686742Y14433346D01*
X8734271Y14548090D01*
X8758500Y14669901D01*
X8758500Y14794099D01*
X8734271Y14915910D01*
X8686742Y15030654D01*
X8617742Y15133920D01*
X8529920Y15221742D01*
X8426654Y15290742D01*
X8311910Y15338271D01*
X8190099Y15362500D01*
X8065901Y15362500D01*
X7944090Y15338271D01*
X7829346Y15290742D01*
X7726080Y15221742D01*
X7638258Y15133920D01*
X7569258Y15030654D01*
X7521729Y14915910D01*
X7503736Y14825449D01*
X7278774Y14600487D01*
X7259407Y14584593D01*
X7195988Y14507316D01*
X7148863Y14419150D01*
X7136332Y14377841D01*
X7119844Y14323487D01*
X7110045Y14224000D01*
X7112500Y14199075D01*
X7112501Y11187500D01*
X6991343Y11187500D01*
X6914654Y11238742D01*
X6799910Y11286271D01*
X6678099Y11310500D01*
X6553901Y11310500D01*
X6432090Y11286271D01*
X6317346Y11238742D01*
X6214080Y11169742D01*
X6126258Y11081920D01*
X6057258Y10978654D01*
X6009729Y10863910D01*
X5985500Y10742099D01*
X3900245Y10742099D01*
X3948622Y10858892D01*
X4026500Y11250407D01*
X4026500Y11649593D01*
X3948622Y12041108D01*
X3795861Y12409908D01*
X3574085Y12741818D01*
X3291818Y13024085D01*
X2959908Y13245861D01*
X2591108Y13398622D01*
X2199593Y13476500D01*
X1800407Y13476500D01*
X1408892Y13398622D01*
X1040092Y13245861D01*
X708182Y13024085D01*
X455500Y12771403D01*
X455500Y20759886D01*
X549295Y20759886D01*
X610969Y20523927D01*
X717491Y20304533D01*
X864768Y20110136D01*
X1047140Y19948207D01*
X1257599Y19824969D01*
X1488056Y19745157D01*
X1582886Y19726295D01*
X1777500Y19806025D01*
X1777500Y20954500D01*
X1778500Y20954500D01*
X1778500Y19806025D01*
X1973114Y19726295D01*
X2067944Y19745157D01*
X2298401Y19824969D01*
X2508860Y19948207D01*
X2691232Y20110136D01*
X2838509Y20304533D01*
X2945031Y20523927D01*
X3006705Y20759886D01*
X2926975Y20954500D01*
X1778500Y20954500D01*
X1777500Y20954500D01*
X629025Y20954500D01*
X549295Y20759886D01*
X455500Y20759886D01*
X455500Y20955000D01*
X3067881Y20955000D01*
X3091902Y20711114D01*
X3163041Y20476600D01*
X3278564Y20260471D01*
X3434032Y20071032D01*
X3623471Y19915564D01*
X3839600Y19800041D01*
X4074114Y19728902D01*
X4256889Y19710900D01*
X4379111Y19710900D01*
X4561886Y19728902D01*
X4796400Y19800041D01*
X5012529Y19915564D01*
X5201968Y20071032D01*
X5357436Y20260471D01*
X5472959Y20476600D01*
X5544098Y20711114D01*
X5568119Y20955000D01*
X5544098Y21198886D01*
X5472959Y21433400D01*
X5357436Y21649529D01*
X5201968Y21838968D01*
X5012529Y21994436D01*
X4796400Y22109959D01*
X4561886Y22181098D01*
X4379111Y22199100D01*
X4256889Y22199100D01*
X4074114Y22181098D01*
X3839600Y22109959D01*
X3623471Y21994436D01*
X3434032Y21838968D01*
X3278564Y21649529D01*
X3163041Y21433400D01*
X3091902Y21198886D01*
X3067881Y20955000D01*
X455500Y20955000D01*
X455500Y21150114D01*
X549295Y21150114D01*
X629025Y20955500D01*
X1777500Y20955500D01*
X1777500Y22103975D01*
X1778500Y22103975D01*
X1778500Y20955500D01*
X2926975Y20955500D01*
X3006705Y21150114D01*
X2945031Y21386073D01*
X2838509Y21605467D01*
X2691232Y21799864D01*
X2508860Y21961793D01*
X2298401Y22085031D01*
X2067944Y22164843D01*
X1973114Y22183705D01*
X1778500Y22103975D01*
X1777500Y22103975D01*
X1582886Y22183705D01*
X1488056Y22164843D01*
X1257599Y22085031D01*
X1047140Y21961793D01*
X864768Y21799864D01*
X717491Y21605467D01*
X610969Y21386073D01*
X549295Y21150114D01*
X455500Y21150114D01*
X455500Y23495000D01*
X527881Y23495000D01*
X551902Y23251114D01*
X623041Y23016600D01*
X738564Y22800471D01*
X894032Y22611032D01*
X1083471Y22455564D01*
X1299600Y22340041D01*
X1534114Y22268902D01*
X1716889Y22250900D01*
X1839111Y22250900D01*
X2021886Y22268902D01*
X2256400Y22340041D01*
X2472529Y22455564D01*
X2661968Y22611032D01*
X2817436Y22800471D01*
X2932959Y23016600D01*
X3004098Y23251114D01*
X3028119Y23495000D01*
X3004098Y23738886D01*
X2942537Y23941824D01*
X3283612Y24282899D01*
X3355190Y24282899D01*
X3278564Y24189529D01*
X3163041Y23973400D01*
X3091902Y23738886D01*
X3067881Y23495000D01*
X3091902Y23251114D01*
X3163041Y23016600D01*
X3278564Y22800471D01*
X3434032Y22611032D01*
X3623471Y22455564D01*
X3839600Y22340041D01*
X4074114Y22268902D01*
X4256889Y22250900D01*
X4379111Y22250900D01*
X4561886Y22268902D01*
X4764824Y22330463D01*
X5846513Y21248774D01*
X5862407Y21229407D01*
X5939684Y21165988D01*
X6027849Y21118863D01*
X6123513Y21089844D01*
X6223000Y21080045D01*
X6247925Y21082500D01*
X9627075Y21082500D01*
X9652000Y21080045D01*
X9676925Y21082500D01*
X9751487Y21089844D01*
X9847151Y21118863D01*
X9935316Y21165988D01*
X10012593Y21229407D01*
X10028487Y21248774D01*
X10643226Y21863513D01*
X10662593Y21879407D01*
X10726012Y21956684D01*
X10773137Y22044849D01*
X10802156Y22140513D01*
X10806241Y22181989D01*
X10811955Y22240000D01*
X10809500Y22264925D01*
X10809500Y22342657D01*
X10860742Y22419346D01*
X10908271Y22534090D01*
X10932500Y22655901D01*
X10932500Y22780099D01*
X10908271Y22901910D01*
X10860742Y23016654D01*
X10809500Y23093343D01*
X10809500Y24666106D01*
X10845742Y24720346D01*
X10893271Y24835090D01*
X10917500Y24956901D01*
X10917500Y25081099D01*
X10893271Y25202910D01*
X10845742Y25317654D01*
X10776742Y25420920D01*
X10688920Y25508742D01*
X10585654Y25577742D01*
X10470910Y25625271D01*
X10349099Y25649500D01*
X10224901Y25649500D01*
X10103090Y25625271D01*
X9988346Y25577742D01*
X9885080Y25508742D01*
X9842500Y25466162D01*
X9799920Y25508742D01*
X9696654Y25577742D01*
X9581910Y25625271D01*
X9460099Y25649500D01*
X9335901Y25649500D01*
X9214090Y25625271D01*
X9099346Y25577742D01*
X8996080Y25508742D01*
X8908258Y25420920D01*
X8839258Y25317654D01*
X8791729Y25202910D01*
X8767500Y25081099D01*
X8767500Y24956901D01*
X8791729Y24835090D01*
X8839258Y24720346D01*
X8890500Y24643656D01*
X8890501Y24340214D01*
X8680852Y24130565D01*
X8650654Y24150742D01*
X8535910Y24198271D01*
X8414099Y24222500D01*
X8289901Y24222500D01*
X8168090Y24198271D01*
X8053346Y24150742D01*
X7950080Y24081742D01*
X7862258Y23993920D01*
X7793258Y23890654D01*
X7745729Y23775910D01*
X7721500Y23654099D01*
X7721500Y23529901D01*
X7745729Y23408090D01*
X7793258Y23293346D01*
X7862258Y23190080D01*
X7938838Y23113500D01*
X7068213Y23113500D01*
X6603500Y23578213D01*
X6603500Y24359075D01*
X6605955Y24384000D01*
X6596156Y24483487D01*
X6567137Y24579152D01*
X6549004Y24613075D01*
X6520012Y24667316D01*
X6456593Y24744593D01*
X6437226Y24760487D01*
X5512096Y25685617D01*
X5544098Y25791114D01*
X5568119Y26035000D01*
X5544098Y26278886D01*
X5472959Y26513400D01*
X5357436Y26729529D01*
X5201968Y26918968D01*
X5012529Y27074436D01*
X4796400Y27189959D01*
X4561886Y27261098D01*
X4379111Y27279100D01*
X4256889Y27279100D01*
X4074114Y27261098D01*
X3839600Y27189959D01*
X3623471Y27074436D01*
X3434032Y26918968D01*
X3278564Y26729529D01*
X3163041Y26513400D01*
X3091902Y26278886D01*
X3067881Y26035000D01*
X3091902Y25791114D01*
X3163041Y25556600D01*
X3278564Y25340471D01*
X3313502Y25297899D01*
X3098324Y25297899D01*
X3073399Y25300354D01*
X3048474Y25297899D01*
X2973912Y25290555D01*
X2878248Y25261536D01*
X2790083Y25214411D01*
X2712806Y25150992D01*
X2696912Y25131625D01*
X2224824Y24659537D01*
X2021886Y24721098D01*
X1839111Y24739100D01*
X1716889Y24739100D01*
X1534114Y24721098D01*
X1299600Y24649959D01*
X1083471Y24534436D01*
X894032Y24378968D01*
X738564Y24189529D01*
X623041Y23973400D01*
X551902Y23738886D01*
X527881Y23495000D01*
X455500Y23495000D01*
X455500Y26035000D01*
X527881Y26035000D01*
X551902Y25791114D01*
X623041Y25556600D01*
X738564Y25340471D01*
X894032Y25151032D01*
X1083471Y24995564D01*
X1299600Y24880041D01*
X1534114Y24808902D01*
X1716889Y24790900D01*
X1839111Y24790900D01*
X2021886Y24808902D01*
X2256400Y24880041D01*
X2472529Y24995564D01*
X2661968Y25151032D01*
X2817436Y25340471D01*
X2932959Y25556600D01*
X3004098Y25791114D01*
X3028119Y26035000D01*
X3004098Y26278886D01*
X2932959Y26513400D01*
X2817436Y26729529D01*
X2661968Y26918968D01*
X2472529Y27074436D01*
X2256400Y27189959D01*
X2021886Y27261098D01*
X1839111Y27279100D01*
X1716889Y27279100D01*
X1534114Y27261098D01*
X1299600Y27189959D01*
X1083471Y27074436D01*
X894032Y26918968D01*
X738564Y26729529D01*
X623041Y26513400D01*
X551902Y26278886D01*
X527881Y26035000D01*
X455500Y26035000D01*
X455500Y40138395D01*
X575915Y39958182D01*
X858182Y39675915D01*
X1190092Y39454139D01*
X1558892Y39301378D01*
X1950407Y39223500D01*
X2349593Y39223500D01*
X2741108Y39301378D01*
X3109908Y39454139D01*
X3441818Y39675915D01*
X3724085Y39958182D01*
X3945861Y40290092D01*
X4098622Y40658892D01*
X4176500Y41050407D01*
X4176500Y41449593D01*
X4098622Y41841108D01*
X4068430Y41914000D01*
X10986000Y41914000D01*
X10986000Y17268000D01*
X10993311Y17193769D01*
X11012341Y17098098D01*
X11069155Y16960935D01*
X11123348Y16879829D01*
X11228329Y16774848D01*
X11309435Y16720655D01*
X11446598Y16663841D01*
X11542269Y16644811D01*
X11616500Y16637500D01*
X13081500Y16637500D01*
X13081500Y16541162D01*
X13078431Y16510000D01*
X13081500Y16478838D01*
X13081500Y7270162D01*
X13078431Y7239000D01*
X13081500Y7207838D01*
X13081500Y6854000D01*
X13088811Y6779769D01*
X13107841Y6684098D01*
X13164655Y6546935D01*
X13218848Y6465829D01*
X13300500Y6384177D01*
X13300500Y6221518D01*
X13350631Y5969491D01*
X13448967Y5732088D01*
X13591729Y5518430D01*
X13773430Y5336729D01*
X13987088Y5193967D01*
X14224491Y5095631D01*
X14476518Y5045500D01*
X14733482Y5045500D01*
X14985509Y5095631D01*
X15222912Y5193967D01*
X15436570Y5336729D01*
X15618271Y5518430D01*
X15761033Y5732088D01*
X15859369Y5969491D01*
X15909500Y6221518D01*
X15909500Y6384177D01*
X15991152Y6465829D01*
X15999606Y6478482D01*
X16800500Y6478482D01*
X16800500Y6221518D01*
X16850631Y5969491D01*
X16948967Y5732088D01*
X17091729Y5518430D01*
X17273430Y5336729D01*
X17487088Y5193967D01*
X17724491Y5095631D01*
X17976518Y5045500D01*
X18233482Y5045500D01*
X18485509Y5095631D01*
X18722912Y5193967D01*
X18936570Y5336729D01*
X19118271Y5518430D01*
X19261033Y5732088D01*
X19359369Y5969491D01*
X19409500Y6221518D01*
X19409500Y6478482D01*
X19359369Y6730509D01*
X19261033Y6967912D01*
X19118271Y7181570D01*
X18936570Y7363271D01*
X18722912Y7506033D01*
X18485509Y7604369D01*
X18233482Y7654500D01*
X17976518Y7654500D01*
X17724491Y7604369D01*
X17487088Y7506033D01*
X17273430Y7363271D01*
X17091729Y7181570D01*
X16948967Y6967912D01*
X16850631Y6730509D01*
X16800500Y6478482D01*
X15999606Y6478482D01*
X16045345Y6546935D01*
X16102159Y6684098D01*
X16121189Y6779769D01*
X16128500Y6854000D01*
X16128500Y7207830D01*
X16131570Y7239000D01*
X16128500Y7270169D01*
X16128500Y16637500D01*
X23495500Y16637500D01*
X23495500Y14982000D01*
X23502811Y14907769D01*
X23521841Y14812098D01*
X23578655Y14674935D01*
X23632848Y14593829D01*
X23737829Y14488848D01*
X23818935Y14434655D01*
X23956098Y14377841D01*
X24051769Y14358811D01*
X24126000Y14351500D01*
X26166000Y14351500D01*
X26240231Y14358811D01*
X26335902Y14377841D01*
X26473065Y14434655D01*
X26554171Y14488848D01*
X26659152Y14593829D01*
X26713345Y14674935D01*
X26770159Y14812098D01*
X26789189Y14907769D01*
X26796500Y14982000D01*
X26796500Y18292000D01*
X26789189Y18366231D01*
X26770159Y18461902D01*
X26713345Y18599065D01*
X26659152Y18680171D01*
X26554171Y18785152D01*
X26473065Y18839345D01*
X26335902Y18896159D01*
X26240231Y18915189D01*
X26166000Y18922500D01*
X13334500Y18922500D01*
X13334500Y27772099D01*
X14482500Y27772099D01*
X14482500Y27647901D01*
X14506729Y27526090D01*
X14554258Y27411346D01*
X14605501Y27334655D01*
X14605500Y24281925D01*
X14603045Y24257000D01*
X14612667Y24159315D01*
X14612844Y24157514D01*
X14641863Y24061850D01*
X14688988Y23973684D01*
X14752407Y23896407D01*
X14771774Y23880513D01*
X16409301Y22242985D01*
X16425190Y22223624D01*
X16502467Y22160205D01*
X16590632Y22113080D01*
X16646790Y22096045D01*
X16686295Y22084061D01*
X16785782Y22074262D01*
X16810707Y22076717D01*
X16918440Y22076717D01*
X16995129Y22025475D01*
X17109873Y21977946D01*
X17231684Y21953717D01*
X17355882Y21953717D01*
X17477693Y21977946D01*
X17592437Y22025475D01*
X17695703Y22094475D01*
X17783525Y22182297D01*
X17852525Y22285563D01*
X17900054Y22400307D01*
X17924283Y22522118D01*
X17924283Y22646316D01*
X17900054Y22768127D01*
X17852525Y22882871D01*
X17783525Y22986137D01*
X17695703Y23073959D01*
X17592437Y23142959D01*
X17477693Y23190488D01*
X17355882Y23214717D01*
X17231684Y23214717D01*
X17109873Y23190488D01*
X16995129Y23142959D01*
X16964932Y23122782D01*
X16019644Y24068070D01*
X16046654Y24079258D01*
X16149920Y24148258D01*
X16237742Y24236080D01*
X16306742Y24339346D01*
X16350960Y24446099D01*
X21340500Y24446099D01*
X21340500Y24321901D01*
X21364729Y24200090D01*
X21412258Y24085346D01*
X21467280Y24003000D01*
X21412258Y23920654D01*
X21364729Y23805910D01*
X21340500Y23684099D01*
X21340500Y23559901D01*
X21364729Y23438090D01*
X21412258Y23323346D01*
X21467280Y23241000D01*
X21412258Y23158654D01*
X21364729Y23043910D01*
X21340500Y22922099D01*
X21340500Y22797901D01*
X21364729Y22676090D01*
X21412258Y22561346D01*
X21481258Y22458080D01*
X21569080Y22370258D01*
X21672346Y22301258D01*
X21787090Y22253729D01*
X21908901Y22229500D01*
X22033099Y22229500D01*
X22154910Y22253729D01*
X22269654Y22301258D01*
X22346343Y22352500D01*
X23881657Y22352500D01*
X23958346Y22301258D01*
X24073090Y22253729D01*
X24194901Y22229500D01*
X24319099Y22229500D01*
X24440910Y22253729D01*
X24555654Y22301258D01*
X24658920Y22370258D01*
X24746742Y22458080D01*
X24815742Y22561346D01*
X24863271Y22676090D01*
X24887500Y22797901D01*
X24887500Y22922099D01*
X24863271Y23043910D01*
X24815742Y23158654D01*
X24760720Y23241000D01*
X24815742Y23323346D01*
X24863271Y23438090D01*
X24887500Y23559901D01*
X24887500Y23684099D01*
X24863271Y23805910D01*
X24815742Y23920654D01*
X24760720Y24003000D01*
X24815742Y24085346D01*
X24863271Y24200090D01*
X24887500Y24321901D01*
X24887500Y24446099D01*
X24863271Y24567910D01*
X24815742Y24682654D01*
X24746742Y24785920D01*
X24658920Y24873742D01*
X24555654Y24942742D01*
X24440910Y24990271D01*
X24319099Y25014500D01*
X24194901Y25014500D01*
X24073090Y24990271D01*
X23958346Y24942742D01*
X23881657Y24891500D01*
X22346343Y24891500D01*
X22269654Y24942742D01*
X22154910Y24990271D01*
X22033099Y25014500D01*
X21908901Y25014500D01*
X21787090Y24990271D01*
X21672346Y24942742D01*
X21569080Y24873742D01*
X21481258Y24785920D01*
X21412258Y24682654D01*
X21364729Y24567910D01*
X21340500Y24446099D01*
X16350960Y24446099D01*
X16354271Y24454090D01*
X16378500Y24575901D01*
X16378500Y24700099D01*
X16354271Y24821910D01*
X16306742Y24936654D01*
X16255500Y25013343D01*
X16255500Y28072657D01*
X16306742Y28149346D01*
X16354271Y28264090D01*
X16378500Y28385901D01*
X16378500Y28510099D01*
X16354271Y28631910D01*
X16306742Y28746654D01*
X16237742Y28849920D01*
X16149920Y28937742D01*
X16046654Y29006742D01*
X15931910Y29054271D01*
X15810099Y29078500D01*
X15685901Y29078500D01*
X15564090Y29054271D01*
X15449346Y29006742D01*
X15346080Y28937742D01*
X15258258Y28849920D01*
X15189258Y28746654D01*
X15141729Y28631910D01*
X15117500Y28510099D01*
X15117500Y28385901D01*
X15126531Y28340500D01*
X15050901Y28340500D01*
X14929090Y28316271D01*
X14814346Y28268742D01*
X14711080Y28199742D01*
X14623258Y28111920D01*
X14554258Y28008654D01*
X14506729Y27893910D01*
X14482500Y27772099D01*
X13334500Y27772099D01*
X13334500Y30607500D01*
X28198000Y30607500D01*
X28272231Y30614811D01*
X28367902Y30633841D01*
X28505065Y30690655D01*
X28586171Y30744848D01*
X28691152Y30849829D01*
X28745345Y30930935D01*
X28802159Y31068098D01*
X28821189Y31163769D01*
X28828500Y31238000D01*
X28828500Y35310000D01*
X28821189Y35384231D01*
X28802159Y35479902D01*
X28745345Y35617065D01*
X28691152Y35698171D01*
X28586171Y35803152D01*
X28505065Y35857345D01*
X28367902Y35914159D01*
X28272231Y35933189D01*
X28198000Y35940500D01*
X27174000Y35940500D01*
X27099769Y35933189D01*
X27004098Y35914159D01*
X26866935Y35857345D01*
X26785829Y35803152D01*
X26680848Y35698171D01*
X26626655Y35617065D01*
X26569841Y35479902D01*
X26550811Y35384231D01*
X26543500Y35310000D01*
X26543500Y32892500D01*
X13334500Y32892500D01*
X13334500Y41914000D01*
X13327189Y41988231D01*
X13308159Y42083902D01*
X13251345Y42221065D01*
X13197152Y42302171D01*
X13092171Y42407152D01*
X13011065Y42461345D01*
X12873902Y42518159D01*
X12778231Y42537189D01*
X12704000Y42544500D01*
X11616500Y42544500D01*
X11542269Y42537189D01*
X11446598Y42518159D01*
X11309435Y42461345D01*
X11228329Y42407152D01*
X11123348Y42302171D01*
X11069155Y42221065D01*
X11012341Y42083902D01*
X10993311Y41988231D01*
X10986000Y41914000D01*
X4068430Y41914000D01*
X3945861Y42209908D01*
X3724085Y42541818D01*
X3441818Y42824085D01*
X3109908Y43045861D01*
X2741108Y43198622D01*
X2349593Y43276500D01*
X1950407Y43276500D01*
X1558892Y43198622D01*
X1190092Y43045861D01*
X858182Y42824085D01*
X575915Y42541818D01*
X455500Y42361605D01*
X455500Y47617734D01*
X526901Y47445357D01*
X770565Y47080689D01*
X1080689Y46770565D01*
X1445357Y46526901D01*
X1850554Y46359063D01*
X2280709Y46273500D01*
X2719291Y46273500D01*
X3149446Y46359063D01*
X3554643Y46526901D01*
X3919311Y46770565D01*
X4229435Y47080689D01*
X4473099Y47445357D01*
X4624505Y47810886D01*
X10201295Y47810886D01*
X10220157Y47716056D01*
X10299969Y47485599D01*
X10423207Y47275140D01*
X10585136Y47092768D01*
X10779533Y46945491D01*
X10998927Y46838969D01*
X11234886Y46777295D01*
X11429500Y46857025D01*
X11429500Y48005500D01*
X11430500Y48005500D01*
X11430500Y46857025D01*
X11625114Y46777295D01*
X11861073Y46838969D01*
X12080467Y46945491D01*
X12274864Y47092768D01*
X12436793Y47275140D01*
X12560031Y47485599D01*
X12639843Y47716056D01*
X12658705Y47810886D01*
X12578975Y48005500D01*
X11430500Y48005500D01*
X11429500Y48005500D01*
X10281025Y48005500D01*
X10201295Y47810886D01*
X4624505Y47810886D01*
X4640937Y47850554D01*
X4671856Y48006000D01*
X12719881Y48006000D01*
X12743902Y47762114D01*
X12815041Y47527600D01*
X12930564Y47311471D01*
X13086032Y47122032D01*
X13275471Y46966564D01*
X13491600Y46851041D01*
X13726114Y46779902D01*
X13908889Y46761900D01*
X14031111Y46761900D01*
X14213886Y46779902D01*
X14448400Y46851041D01*
X14664529Y46966564D01*
X14853968Y47122032D01*
X15009436Y47311471D01*
X15124959Y47527600D01*
X15196098Y47762114D01*
X15220119Y48006000D01*
X15259881Y48006000D01*
X15283902Y47762114D01*
X15304000Y47695860D01*
X15304000Y37334000D01*
X15311311Y37259769D01*
X15330341Y37164098D01*
X15387155Y37026935D01*
X15441348Y36945829D01*
X15546329Y36840848D01*
X15627435Y36786655D01*
X15764598Y36729841D01*
X15860269Y36710811D01*
X15934500Y36703500D01*
X29337500Y36703500D01*
X29337500Y22348000D01*
X29344811Y22273769D01*
X29363841Y22178098D01*
X29420655Y22040935D01*
X29474848Y21959829D01*
X29579829Y21854848D01*
X29660935Y21800655D01*
X29798098Y21743841D01*
X29893769Y21724811D01*
X29968000Y21717500D01*
X30992000Y21717500D01*
X31066231Y21724811D01*
X31161902Y21743841D01*
X31299065Y21800655D01*
X31380171Y21854848D01*
X31485152Y21959829D01*
X31539345Y22040935D01*
X31596159Y22178098D01*
X31615189Y22273769D01*
X31622500Y22348000D01*
X31622500Y27230194D01*
X36470500Y27230194D01*
X36470500Y26987806D01*
X36517787Y26750076D01*
X36610545Y26526140D01*
X36745208Y26324602D01*
X36916602Y26153208D01*
X37118140Y26018545D01*
X37342076Y25925787D01*
X37579806Y25878500D01*
X37822194Y25878500D01*
X38059924Y25925787D01*
X38283860Y26018545D01*
X38485398Y26153208D01*
X38656792Y26324602D01*
X38791455Y26526140D01*
X38884213Y26750076D01*
X38931500Y26987806D01*
X38931500Y27230194D01*
X38884213Y27467924D01*
X38791455Y27691860D01*
X38656792Y27893398D01*
X38485398Y28064792D01*
X38283860Y28199455D01*
X38059924Y28292213D01*
X37822194Y28339500D01*
X37579806Y28339500D01*
X37342076Y28292213D01*
X37118140Y28199455D01*
X36916602Y28064792D01*
X36745208Y27893398D01*
X36610545Y27691860D01*
X36517787Y27467924D01*
X36470500Y27230194D01*
X31622500Y27230194D01*
X31622500Y28405571D01*
X34070500Y28405571D01*
X34070500Y28212429D01*
X34108180Y28022999D01*
X34182092Y27844559D01*
X34289396Y27683968D01*
X34425968Y27547396D01*
X34586559Y27440092D01*
X34764999Y27366180D01*
X34954429Y27328500D01*
X35147571Y27328500D01*
X35337001Y27366180D01*
X35515441Y27440092D01*
X35676032Y27547396D01*
X35812604Y27683968D01*
X35919908Y27844559D01*
X35993820Y28022999D01*
X36031500Y28212429D01*
X36031500Y28405571D01*
X35993820Y28595001D01*
X35919908Y28773441D01*
X35812604Y28934032D01*
X35676032Y29070604D01*
X35515441Y29177908D01*
X35337001Y29251820D01*
X35147571Y29289500D01*
X34954429Y29289500D01*
X34764999Y29251820D01*
X34586559Y29177908D01*
X34425968Y29070604D01*
X34289396Y28934032D01*
X34182092Y28773441D01*
X34108180Y28595001D01*
X34070500Y28405571D01*
X31622500Y28405571D01*
X31622500Y33255571D01*
X34070500Y33255571D01*
X34070500Y33062429D01*
X34108180Y32872999D01*
X34182092Y32694559D01*
X34289396Y32533968D01*
X34425968Y32397396D01*
X34586559Y32290092D01*
X34764999Y32216180D01*
X34954429Y32178500D01*
X35147571Y32178500D01*
X35337001Y32216180D01*
X35515441Y32290092D01*
X35676032Y32397396D01*
X35812604Y32533968D01*
X35919908Y32694559D01*
X35993820Y32872999D01*
X36031500Y33062429D01*
X36031500Y33255571D01*
X35993820Y33445001D01*
X35919908Y33623441D01*
X35812604Y33784032D01*
X35676032Y33920604D01*
X35515441Y34027908D01*
X35337001Y34101820D01*
X35147571Y34139500D01*
X34954429Y34139500D01*
X34764999Y34101820D01*
X34586559Y34027908D01*
X34425968Y33920604D01*
X34289396Y33784032D01*
X34182092Y33623441D01*
X34108180Y33445001D01*
X34070500Y33255571D01*
X31622500Y33255571D01*
X31622500Y34480194D01*
X36470500Y34480194D01*
X36470500Y34237806D01*
X36517787Y34000076D01*
X36610545Y33776140D01*
X36745208Y33574602D01*
X36916602Y33403208D01*
X37118140Y33268545D01*
X37342076Y33175787D01*
X37579806Y33128500D01*
X37822194Y33128500D01*
X38059924Y33175787D01*
X38283860Y33268545D01*
X38485398Y33403208D01*
X38656792Y33574602D01*
X38791455Y33776140D01*
X38884213Y34000076D01*
X38931500Y34237806D01*
X38931500Y34480194D01*
X38884213Y34717924D01*
X38791455Y34941860D01*
X38656792Y35143398D01*
X38485398Y35314792D01*
X38283860Y35449455D01*
X38059924Y35542213D01*
X37822194Y35589500D01*
X37579806Y35589500D01*
X37342076Y35542213D01*
X37118140Y35449455D01*
X36916602Y35314792D01*
X36745208Y35143398D01*
X36610545Y34941860D01*
X36517787Y34717924D01*
X36470500Y34480194D01*
X31622500Y34480194D01*
X31622500Y38358000D01*
X31615189Y38432231D01*
X31596159Y38527902D01*
X31539345Y38665065D01*
X31485152Y38746171D01*
X31380171Y38851152D01*
X31299065Y38905345D01*
X31161902Y38962159D01*
X31066231Y38981189D01*
X30992000Y38988500D01*
X17716000Y38988500D01*
X17716000Y47695860D01*
X17736098Y47762114D01*
X17760119Y48006000D01*
X17799881Y48006000D01*
X17823902Y47762114D01*
X17895041Y47527600D01*
X18010564Y47311471D01*
X18166032Y47122032D01*
X18355471Y46966564D01*
X18571600Y46851041D01*
X18806114Y46779902D01*
X18988889Y46761900D01*
X19111111Y46761900D01*
X19293886Y46779902D01*
X19528400Y46851041D01*
X19744529Y46966564D01*
X19933968Y47122032D01*
X20089436Y47311471D01*
X20204959Y47527600D01*
X20276098Y47762114D01*
X20300119Y48006000D01*
X20339881Y48006000D01*
X20363902Y47762114D01*
X20435041Y47527600D01*
X20550564Y47311471D01*
X20706032Y47122032D01*
X20895471Y46966564D01*
X21111600Y46851041D01*
X21346114Y46779902D01*
X21528889Y46761900D01*
X21651111Y46761900D01*
X21833886Y46779902D01*
X22068400Y46851041D01*
X22284529Y46966564D01*
X22473968Y47122032D01*
X22629436Y47311471D01*
X22744959Y47527600D01*
X22816098Y47762114D01*
X22840119Y48006000D01*
X22879881Y48006000D01*
X22903902Y47762114D01*
X22975041Y47527600D01*
X23090564Y47311471D01*
X23246032Y47122032D01*
X23435471Y46966564D01*
X23651600Y46851041D01*
X23886114Y46779902D01*
X24068889Y46761900D01*
X24191111Y46761900D01*
X24373886Y46779902D01*
X24608400Y46851041D01*
X24824529Y46966564D01*
X25013968Y47122032D01*
X25169436Y47311471D01*
X25284959Y47527600D01*
X25356098Y47762114D01*
X25380119Y48006000D01*
X25356098Y48249886D01*
X25284959Y48484400D01*
X25169436Y48700529D01*
X25013968Y48889968D01*
X24824529Y49045436D01*
X24608400Y49160959D01*
X24373886Y49232098D01*
X24191111Y49250100D01*
X24068889Y49250100D01*
X23886114Y49232098D01*
X23651600Y49160959D01*
X23435471Y49045436D01*
X23246032Y48889968D01*
X23090564Y48700529D01*
X22975041Y48484400D01*
X22903902Y48249886D01*
X22879881Y48006000D01*
X22840119Y48006000D01*
X22816098Y48249886D01*
X22744959Y48484400D01*
X22629436Y48700529D01*
X22473968Y48889968D01*
X22284529Y49045436D01*
X22068400Y49160959D01*
X21833886Y49232098D01*
X21651111Y49250100D01*
X21528889Y49250100D01*
X21346114Y49232098D01*
X21111600Y49160959D01*
X20895471Y49045436D01*
X20706032Y48889968D01*
X20550564Y48700529D01*
X20435041Y48484400D01*
X20363902Y48249886D01*
X20339881Y48006000D01*
X20300119Y48006000D01*
X20276098Y48249886D01*
X20204959Y48484400D01*
X20089436Y48700529D01*
X19933968Y48889968D01*
X19744529Y49045436D01*
X19528400Y49160959D01*
X19293886Y49232098D01*
X19111111Y49250100D01*
X18988889Y49250100D01*
X18806114Y49232098D01*
X18571600Y49160959D01*
X18355471Y49045436D01*
X18166032Y48889968D01*
X18010564Y48700529D01*
X17895041Y48484400D01*
X17823902Y48249886D01*
X17799881Y48006000D01*
X17760119Y48006000D01*
X17736098Y48249886D01*
X17716000Y48316140D01*
X17716000Y48772000D01*
X17708689Y48846231D01*
X17689659Y48941902D01*
X17632845Y49079065D01*
X17578652Y49160171D01*
X17473671Y49265152D01*
X17392565Y49319345D01*
X17255402Y49376159D01*
X17159731Y49395189D01*
X17085500Y49402500D01*
X15934500Y49402500D01*
X15860269Y49395189D01*
X15764598Y49376159D01*
X15627435Y49319345D01*
X15546329Y49265152D01*
X15441348Y49160171D01*
X15387155Y49079065D01*
X15330341Y48941902D01*
X15311311Y48846231D01*
X15304000Y48772000D01*
X15304000Y48316140D01*
X15283902Y48249886D01*
X15259881Y48006000D01*
X15220119Y48006000D01*
X15196098Y48249886D01*
X15124959Y48484400D01*
X15009436Y48700529D01*
X14853968Y48889968D01*
X14664529Y49045436D01*
X14448400Y49160959D01*
X14213886Y49232098D01*
X14031111Y49250100D01*
X13908889Y49250100D01*
X13726114Y49232098D01*
X13491600Y49160959D01*
X13275471Y49045436D01*
X13086032Y48889968D01*
X12930564Y48700529D01*
X12815041Y48484400D01*
X12743902Y48249886D01*
X12719881Y48006000D01*
X4671856Y48006000D01*
X4710667Y48201114D01*
X10201295Y48201114D01*
X10281025Y48006500D01*
X11429500Y48006500D01*
X11429500Y49154975D01*
X11430500Y49154975D01*
X11430500Y48006500D01*
X12578975Y48006500D01*
X12658705Y48201114D01*
X12639843Y48295944D01*
X12560031Y48526401D01*
X12436793Y48736860D01*
X12274864Y48919232D01*
X12080467Y49066509D01*
X11861073Y49173031D01*
X11625114Y49234705D01*
X11430500Y49154975D01*
X11429500Y49154975D01*
X11234886Y49234705D01*
X10998927Y49173031D01*
X10779533Y49066509D01*
X10585136Y48919232D01*
X10423207Y48736860D01*
X10299969Y48526401D01*
X10220157Y48295944D01*
X10201295Y48201114D01*
X4710667Y48201114D01*
X4726500Y48280709D01*
X4726500Y48719291D01*
X4640937Y49149446D01*
X4473099Y49554643D01*
X4229435Y49919311D01*
X3919311Y50229435D01*
X3554643Y50473099D01*
X3382266Y50544500D01*
X30820095Y50544500D01*
X30784294Y50529671D01*
%TO.N,3V3*%
G36*
X12750313Y42025810D02*
X12789576Y41999576D01*
X12815810Y41960313D01*
X12827500Y41901543D01*
X12827500Y32762000D01*
X12829931Y32737321D01*
X12848961Y32641650D01*
X12856159Y32617920D01*
X12867849Y32596050D01*
X12922042Y32514944D01*
X12937774Y32495774D01*
X12956944Y32480042D01*
X13038050Y32425849D01*
X13059920Y32414159D01*
X13083650Y32406961D01*
X13179321Y32387931D01*
X13204000Y32385500D01*
X26674000Y32385500D01*
X26698679Y32387931D01*
X26794350Y32406961D01*
X26818080Y32414159D01*
X26839950Y32425849D01*
X26921056Y32480042D01*
X26940226Y32495774D01*
X26955958Y32514944D01*
X27010151Y32596050D01*
X27021841Y32617920D01*
X27029039Y32641650D01*
X27048069Y32737321D01*
X27050500Y32762000D01*
X27050500Y35297543D01*
X27062190Y35356313D01*
X27088424Y35395576D01*
X27127687Y35421810D01*
X27186457Y35433500D01*
X28185543Y35433500D01*
X28244313Y35421810D01*
X28283576Y35395576D01*
X28309810Y35356313D01*
X28321500Y35297543D01*
X28321500Y31250457D01*
X28309810Y31191687D01*
X28283576Y31152424D01*
X28244313Y31126190D01*
X28185543Y31114500D01*
X13204000Y31114500D01*
X13179321Y31112069D01*
X13083650Y31093039D01*
X13059920Y31085841D01*
X13038050Y31074151D01*
X12956944Y31019958D01*
X12937774Y31004226D01*
X12922042Y30985056D01*
X12867849Y30903950D01*
X12856159Y30882080D01*
X12848961Y30858350D01*
X12829931Y30762679D01*
X12827500Y30738000D01*
X12827500Y18792000D01*
X12829931Y18767321D01*
X12848961Y18671650D01*
X12856159Y18647920D01*
X12867849Y18626050D01*
X12922042Y18544944D01*
X12937774Y18525774D01*
X12956944Y18510042D01*
X13038050Y18455849D01*
X13059920Y18444159D01*
X13083650Y18436961D01*
X13179321Y18417931D01*
X13204000Y18415500D01*
X26153543Y18415500D01*
X26212313Y18403810D01*
X26251576Y18377576D01*
X26277810Y18338313D01*
X26289500Y18279543D01*
X26289500Y14994457D01*
X26277810Y14935687D01*
X26251576Y14896424D01*
X26212313Y14870190D01*
X26153543Y14858500D01*
X24138457Y14858500D01*
X24079687Y14870190D01*
X24040424Y14896424D01*
X24014190Y14935687D01*
X24002500Y14994457D01*
X24002500Y16768000D01*
X24000069Y16792679D01*
X23981039Y16888350D01*
X23973841Y16912080D01*
X23962151Y16933950D01*
X23907958Y17015056D01*
X23892226Y17034226D01*
X23873056Y17049958D01*
X23791950Y17104151D01*
X23770080Y17115841D01*
X23746350Y17123039D01*
X23650679Y17142069D01*
X23626000Y17144500D01*
X15998000Y17144500D01*
X15973321Y17142069D01*
X15877650Y17123039D01*
X15853920Y17115841D01*
X15832050Y17104151D01*
X15750944Y17049958D01*
X15731774Y17034226D01*
X15716042Y17015056D01*
X15661849Y16933950D01*
X15650159Y16912080D01*
X15642961Y16888350D01*
X15623931Y16792679D01*
X15621500Y16768000D01*
X15621500Y7139735D01*
X15464974Y7209267D01*
X14986207Y6730500D01*
X14984793Y6730500D01*
X15464267Y7209974D01*
X15375072Y7410763D01*
X15153330Y7540615D01*
X14910517Y7624711D01*
X14655963Y7659822D01*
X14399450Y7644597D01*
X14150836Y7579620D01*
X13919676Y7467391D01*
X13834928Y7410763D01*
X13745733Y7209974D01*
X14225207Y6730500D01*
X14223793Y6730500D01*
X13745026Y7209267D01*
X13588500Y7139735D01*
X13588500Y16768000D01*
X13586069Y16792679D01*
X13567039Y16888350D01*
X13559841Y16912080D01*
X13548151Y16933950D01*
X13493958Y17015056D01*
X13478226Y17034226D01*
X13459056Y17049958D01*
X13377950Y17104151D01*
X13356080Y17115841D01*
X13332350Y17123039D01*
X13236679Y17142069D01*
X13212000Y17144500D01*
X11628957Y17144500D01*
X11570187Y17156190D01*
X11530924Y17182424D01*
X11504690Y17221687D01*
X11493000Y17280457D01*
X11493000Y41901543D01*
X11504690Y41960313D01*
X11530924Y41999576D01*
X11570187Y42025810D01*
X11628957Y42037500D01*
X12691543Y42037500D01*
X12750313Y42025810D01*
X12750313Y42025810D01*
G37*
X12750313Y42025810D02*
X12789576Y41999576D01*
X12815810Y41960313D01*
X12827500Y41901543D01*
X12827500Y32762000D01*
X12829931Y32737321D01*
X12848961Y32641650D01*
X12856159Y32617920D01*
X12867849Y32596050D01*
X12922042Y32514944D01*
X12937774Y32495774D01*
X12956944Y32480042D01*
X13038050Y32425849D01*
X13059920Y32414159D01*
X13083650Y32406961D01*
X13179321Y32387931D01*
X13204000Y32385500D01*
X26674000Y32385500D01*
X26698679Y32387931D01*
X26794350Y32406961D01*
X26818080Y32414159D01*
X26839950Y32425849D01*
X26921056Y32480042D01*
X26940226Y32495774D01*
X26955958Y32514944D01*
X27010151Y32596050D01*
X27021841Y32617920D01*
X27029039Y32641650D01*
X27048069Y32737321D01*
X27050500Y32762000D01*
X27050500Y35297543D01*
X27062190Y35356313D01*
X27088424Y35395576D01*
X27127687Y35421810D01*
X27186457Y35433500D01*
X28185543Y35433500D01*
X28244313Y35421810D01*
X28283576Y35395576D01*
X28309810Y35356313D01*
X28321500Y35297543D01*
X28321500Y31250457D01*
X28309810Y31191687D01*
X28283576Y31152424D01*
X28244313Y31126190D01*
X28185543Y31114500D01*
X13204000Y31114500D01*
X13179321Y31112069D01*
X13083650Y31093039D01*
X13059920Y31085841D01*
X13038050Y31074151D01*
X12956944Y31019958D01*
X12937774Y31004226D01*
X12922042Y30985056D01*
X12867849Y30903950D01*
X12856159Y30882080D01*
X12848961Y30858350D01*
X12829931Y30762679D01*
X12827500Y30738000D01*
X12827500Y18792000D01*
X12829931Y18767321D01*
X12848961Y18671650D01*
X12856159Y18647920D01*
X12867849Y18626050D01*
X12922042Y18544944D01*
X12937774Y18525774D01*
X12956944Y18510042D01*
X13038050Y18455849D01*
X13059920Y18444159D01*
X13083650Y18436961D01*
X13179321Y18417931D01*
X13204000Y18415500D01*
X26153543Y18415500D01*
X26212313Y18403810D01*
X26251576Y18377576D01*
X26277810Y18338313D01*
X26289500Y18279543D01*
X26289500Y14994457D01*
X26277810Y14935687D01*
X26251576Y14896424D01*
X26212313Y14870190D01*
X26153543Y14858500D01*
X24138457Y14858500D01*
X24079687Y14870190D01*
X24040424Y14896424D01*
X24014190Y14935687D01*
X24002500Y14994457D01*
X24002500Y16768000D01*
X24000069Y16792679D01*
X23981039Y16888350D01*
X23973841Y16912080D01*
X23962151Y16933950D01*
X23907958Y17015056D01*
X23892226Y17034226D01*
X23873056Y17049958D01*
X23791950Y17104151D01*
X23770080Y17115841D01*
X23746350Y17123039D01*
X23650679Y17142069D01*
X23626000Y17144500D01*
X15998000Y17144500D01*
X15973321Y17142069D01*
X15877650Y17123039D01*
X15853920Y17115841D01*
X15832050Y17104151D01*
X15750944Y17049958D01*
X15731774Y17034226D01*
X15716042Y17015056D01*
X15661849Y16933950D01*
X15650159Y16912080D01*
X15642961Y16888350D01*
X15623931Y16792679D01*
X15621500Y16768000D01*
X15621500Y7139735D01*
X15464974Y7209267D01*
X14986207Y6730500D01*
X14984793Y6730500D01*
X15464267Y7209974D01*
X15375072Y7410763D01*
X15153330Y7540615D01*
X14910517Y7624711D01*
X14655963Y7659822D01*
X14399450Y7644597D01*
X14150836Y7579620D01*
X13919676Y7467391D01*
X13834928Y7410763D01*
X13745733Y7209974D01*
X14225207Y6730500D01*
X14223793Y6730500D01*
X13745026Y7209267D01*
X13588500Y7139735D01*
X13588500Y16768000D01*
X13586069Y16792679D01*
X13567039Y16888350D01*
X13559841Y16912080D01*
X13548151Y16933950D01*
X13493958Y17015056D01*
X13478226Y17034226D01*
X13459056Y17049958D01*
X13377950Y17104151D01*
X13356080Y17115841D01*
X13332350Y17123039D01*
X13236679Y17142069D01*
X13212000Y17144500D01*
X11628957Y17144500D01*
X11570187Y17156190D01*
X11530924Y17182424D01*
X11504690Y17221687D01*
X11493000Y17280457D01*
X11493000Y41901543D01*
X11504690Y41960313D01*
X11530924Y41999576D01*
X11570187Y42025810D01*
X11628957Y42037500D01*
X12691543Y42037500D01*
X12750313Y42025810D01*
%TD*%
M02*
